<svg version="1.1" viewBox="0.0 0.0 812.0 502.0" fill="none" stroke="none" stroke-linecap="square" stroke-miterlimit="10" width="812" height="502" xmlns:xlink="http://www.w3.org/1999/xlink" xmlns="http://www.w3.org/2000/svg"><path fill="#ffffff" d="M0 0L812.0 0L812.0 502.0L0 502.0L0 0Z" fill-rule="nonzero"/><path stroke="#333333" stroke-width="1.0" stroke-linecap="butt" d="M52.5 424.5L786.5 424.5" fill-rule="nonzero"/><path stroke="#cccccc" stroke-width="1.0" stroke-linecap="butt" d="M52.5 344.5L786.5 344.5" fill-rule="nonzero"/><path stroke="#cccccc" stroke-width="1.0" stroke-linecap="butt" d="M52.5 264.5L786.5 264.5" fill-rule="nonzero"/><path stroke="#cccccc" stroke-width="1.0" stroke-linecap="butt" d="M52.5 183.5L786.5 183.5" fill-rule="nonzero"/><path stroke="#cccccc" stroke-width="1.0" stroke-linecap="butt" d="M52.5 103.5L786.5 103.5" fill-rule="nonzero"/><clipPath id="id_0"><path d="M52.1 103.566666L786.9 103.566666L786.9 424.9L52.1 424.9L52.1 103.566666Z" clip-rule="nonzero"/></clipPath><path stroke="#000000" stroke-width="2.0" stroke-linecap="butt" stroke-opacity="0.0" clip-path="url(#id_0)" d="M331.0 425.0L245.0 425.0L245.0 411.0C245.0 409.89542 245.89543 409.0 247.0 409.0L329.0 409.0C330.10458 409.0 331.0 409.89542 331.0 411.0Z" fill-rule="nonzero"/><path fill="#93c47d" clip-path="url(#id_0)" d="M331.0 425.0L245.0 425.0L245.0 411.0C245.0 409.89542 245.89543 409.0 247.0 409.0L329.0 409.0C330.10458 409.0 331.0 409.89542 331.0 411.0Z" fill-rule="nonzero"/><path stroke="#000000" stroke-width="2.0" stroke-linecap="butt" stroke-opacity="0.0" clip-path="url(#id_0)" d="M419.0 425.0L333.0 425.0L333.0 406.0C333.0 404.89542 333.89542 404.0 335.0 404.0L417.0 404.0C418.10458 404.0 419.0 404.89542 419.0 406.0Z" fill-rule="nonzero"/><path fill="#6aa84f" clip-path="url(#id_0)" d="M419.0 425.0L333.0 425.0L333.0 406.0C333.0 404.89542 333.89542 404.0 335.0 404.0L417.0 404.0C418.10458 404.0 419.0 404.89542 419.0 406.0Z" fill-rule="nonzero"/><path stroke="#000000" stroke-width="2.0" stroke-linecap="butt" stroke-opacity="0.0" clip-path="url(#id_0)" d="M507.0 425.0L421.0 425.0L421.0 290.0C421.0 288.89542 421.89542 288.0 423.0 288.0L505.0 288.0C506.10458 288.0 507.0 288.89542 507.0 290.0Z" fill-rule="nonzero"/><path fill="#e06666" clip-path="url(#id_0)" d="M507.0 425.0L421.0 425.0L421.0 290.0C421.0 288.89542 421.89542 288.0 423.0 288.0L505.0 288.0C506.10458 288.0 507.0 288.89542 507.0 290.0Z" fill-rule="nonzero"/><path stroke="#000000" stroke-width="2.0" stroke-linecap="butt" stroke-opacity="0.0" clip-path="url(#id_0)" d="M595.0 425.0L509.0 425.0L509.0 125.0C509.0 123.89543 509.89542 123.0 511.0 123.0L593.0 123.0C594.10455 123.0 595.0 123.89543 595.0 125.0Z" fill-rule="nonzero"/><path fill="#cc0000" clip-path="url(#id_0)" d="M595.0 425.0L509.0 425.0L509.0 125.0C509.0 123.89543 509.89542 123.0 511.0 123.0L593.0 123.0C594.10455 123.0 595.0 123.89543 595.0 125.0Z" fill-rule="nonzero"/><path fill="#000000" d="M393.92188 473.9L393.92188 465.30624L396.89062 465.30624Q397.89062 465.30624 398.42188 465.43124Q399.15625 465.60312 399.67188 466.04062Q400.35938 466.61874 400.6875 467.525Q401.03125 468.41562 401.03125 469.55624Q401.03125 470.54062 400.79688 471.29062Q400.57812 472.04062 400.21875 472.54062Q399.85938 473.04062 399.42188 473.32187Q399.0 473.60312 398.40625 473.75937Q397.8125 473.9 397.03125 473.9L393.92188 473.9ZM395.0625 472.88437L396.89062 472.88437Q397.75 472.88437 398.23438 472.72812Q398.71875 472.57187 399.0 472.275Q399.40625 471.88437 399.625 471.19687Q399.85938 470.50937 399.85938 469.54062Q399.85938 468.19687 399.40625 467.47812Q398.96875 466.74374 398.34375 466.49374Q397.875 466.32187 396.875 466.32187L395.0625 466.32187L395.0625 472.88437ZM405.34375 473.9L405.34375 470.25937L402.03125 465.30624L403.42188 465.30624L405.10938 467.9Q405.57812 468.61874 405.98438 469.35312Q406.375 468.68124 406.92188 467.8375L408.59375 465.30624L409.90625 465.30624L406.48438 470.25937L406.48438 473.9L405.34375 473.9ZM409.92188 473.9L409.92188 465.30624L411.07812 465.30624L415.59375 472.05624L415.59375 465.30624L416.6875 465.30624L416.6875 473.9L415.51562 473.9L411.0 467.15L411.0 473.9L409.92188 473.9ZM417.98438 473.9L421.28125 465.30624L422.5 465.30624L426.01562 473.9L424.73438 473.9L423.71875 471.29062L420.14062 471.29062L419.1875 473.9L417.98438 473.9ZM420.46875 470.36874L423.375 470.36874L422.48438 467.99374Q422.0625 466.91562 421.875 466.2125Q421.70312 467.04062 421.40625 467.85312L420.46875 470.36874ZM425.89062 473.9L425.89062 465.30624L427.60938 465.30624L429.64062 471.38437Q429.92188 472.24374 430.04688 472.66562Q430.1875 472.19687 430.5 471.29062L432.5625 465.30624L434.09375 465.30624L434.09375 473.9L433.0 473.9L433.0 466.7125L430.5 473.9L429.46875 473.9L426.98438 466.5875L426.98438 473.9L425.89062 473.9ZM435.125 473.9L435.125 465.30624L436.25 465.30624L436.25 473.9L435.125 473.9ZM444.0625 470.88437L445.1875 471.18124Q444.82812 472.57187 443.90625 473.30624Q442.98438 474.04062 441.64062 474.04062Q440.25 474.04062 439.375 473.47812Q438.5 472.91562 438.04688 471.85312Q437.59375 470.775 437.59375 469.54062Q437.59375 468.19687 438.10938 467.19687Q438.625 466.19687 439.5625 465.68124Q440.51562 465.16562 441.65625 465.16562Q442.9375 465.16562 443.8125 465.82187Q444.70312 466.47812 445.04688 467.66562L443.92188 467.93124Q443.625 466.99374 443.04688 466.57187Q442.48438 466.13437 441.625 466.13437Q440.64062 466.13437 439.96875 466.61874Q439.3125 467.0875 439.03125 467.88437Q438.76562 468.68124 438.76562 469.54062Q438.76562 470.63437 439.07812 471.44687Q439.40625 472.25937 440.07812 472.66562Q440.75 473.07187 441.54688 473.07187Q442.5 473.07187 443.15625 472.525Q443.82812 471.97812 444.0625 470.88437Z" fill-rule="nonzero"/><path fill="#000000" d="M39.6 424.66562Q39.6 423.13437 39.9125 422.2125Q40.225 421.275 40.834373 420.775Q41.459373 420.275 42.396873 420.275Q43.084373 420.275 43.6 420.55624Q44.13125 420.8375 44.475 421.36874Q44.81875 421.88437 45.00625 422.63437Q45.19375 423.38437 45.19375 424.66562Q45.19375 426.18124 44.88125 427.10312Q44.584373 428.025 43.959373 428.54062Q43.35 429.04062 42.396873 429.04062Q41.1625 429.04062 40.44375 428.15Q39.6 427.0875 39.6 424.66562ZM40.678123 424.66562Q40.678123 426.775 41.178123 427.47812Q41.678123 428.18124 42.396873 428.18124Q43.13125 428.18124 43.615623 427.47812Q44.115623 426.775 44.115623 424.66562Q44.115623 422.54062 43.615623 421.85312Q43.13125 421.15 42.38125 421.15Q41.6625 421.15 41.225 421.75937Q40.678123 422.54062 40.678123 424.66562Z" fill-rule="nonzero"/><path fill="#000000" d="M32.6 346.31668L33.709373 346.22293Q33.834373 347.03543 34.271873 347.44168Q34.725 347.84793 35.365623 347.84793Q36.115623 347.84793 36.646873 347.2698Q37.178123 346.69168 37.178123 345.75418Q37.178123 344.84793 36.6625 344.3323Q36.1625 343.80106 35.334373 343.80106Q34.834373 343.80106 34.4125 344.03543Q34.00625 344.2698 33.771873 344.62918L32.7875 344.50418L33.615623 340.09793L37.896873 340.09793L37.896873 341.09793L34.459373 341.09793L34.00625 343.41043Q34.771873 342.86356 35.615623 342.86356Q36.740623 342.86356 37.50625 343.6448Q38.2875 344.42606 38.2875 345.66043Q38.2875 346.81668 37.615623 347.67606Q36.7875 348.7073 35.365623 348.7073Q34.19375 348.7073 33.44375 348.05106Q32.709373 347.3948 32.6 346.31668ZM39.6 344.3323Q39.6 342.80106 39.9125 341.87918Q40.225 340.94168 40.834373 340.44168Q41.459373 339.94168 42.396873 339.94168Q43.084373 339.94168 43.6 340.22293Q44.13125 340.50418 44.475 341.03543Q44.81875 341.55106 45.00625 342.30106Q45.19375 343.05106 45.19375 344.3323Q45.19375 345.84793 44.88125 346.7698Q44.584373 347.69168 43.959373 348.2073Q43.35 348.7073 42.396873 348.7073Q41.1625 348.7073 40.44375 347.81668Q39.6 346.75418 39.6 344.3323ZM40.678123 344.3323Q40.678123 346.44168 41.178123 347.1448Q41.678123 347.84793 42.396873 347.84793Q43.13125 347.84793 43.615623 347.1448Q44.115623 346.44168 44.115623 344.3323Q44.115623 342.2073 43.615623 341.5198Q43.13125 340.81668 42.38125 340.81668Q41.6625 340.81668 41.225 341.42606Q40.678123 342.2073 40.678123 344.3323Z" fill-rule="nonzero"/><path fill="#000000" d="M29.56875 268.23334L28.521875 268.23334L28.521875 261.5146Q28.13125 261.87396 27.50625 262.24896Q26.896875 262.60834 26.4125 262.7802L26.4125 261.7646Q27.2875 261.3427 27.94375 260.7646Q28.615625 260.17084 28.896875 259.60834L29.56875 259.60834L29.56875 268.23334ZM32.6 263.99896Q32.6 262.4677 32.9125 261.54584Q33.225 260.60834 33.834373 260.10834Q34.459373 259.60834 35.396873 259.60834Q36.084373 259.60834 36.6 259.8896Q37.13125 260.17084 37.475 260.7021Q37.81875 261.2177 38.00625 261.9677Q38.19375 262.7177 38.19375 263.99896Q38.19375 265.5146 37.88125 266.43646Q37.584373 267.35834 36.959373 267.87396Q36.35 268.37396 35.396873 268.37396Q34.1625 268.37396 33.44375 267.48334Q32.6 266.42084 32.6 263.99896ZM33.678123 263.99896Q33.678123 266.10834 34.178123 266.81146Q34.678123 267.5146 35.396873 267.5146Q36.13125 267.5146 36.615623 266.81146Q37.115623 266.10834 37.115623 263.99896Q37.115623 261.87396 36.615623 261.18646Q36.13125 260.48334 35.38125 260.48334Q34.6625 260.48334 34.225 261.0927Q33.678123 261.87396 33.678123 263.99896ZM39.6 263.99896Q39.6 262.4677 39.9125 261.54584Q40.225 260.60834 40.834373 260.10834Q41.459373 259.60834 42.396873 259.60834Q43.084373 259.60834 43.6 259.8896Q44.13125 260.17084 44.475 260.7021Q44.81875 261.2177 45.00625 261.9677Q45.19375 262.7177 45.19375 263.99896Q45.19375 265.5146 44.88125 266.43646Q44.584373 267.35834 43.959373 267.87396Q43.35 268.37396 42.396873 268.37396Q41.1625 268.37396 40.44375 267.48334Q39.6 266.42084 39.6 263.99896ZM40.678123 263.99896Q40.678123 266.10834 41.178123 266.81146Q41.678123 267.5146 42.396873 267.5146Q43.13125 267.5146 43.615623 266.81146Q44.115623 266.10834 44.115623 263.99896Q44.115623 261.87396 43.615623 261.18646Q43.13125 260.48334 42.38125 260.48334Q41.6625 260.48334 41.225 261.0927Q40.678123 261.87396 40.678123 263.99896Z" fill-rule="nonzero"/><path fill="#000000" d="M29.56875 187.9L28.521875 187.9L28.521875 181.18124Q28.13125 181.54062 27.50625 181.91562Q26.896875 182.275 26.4125 182.44687L26.4125 181.43124Q27.2875 181.00937 27.94375 180.43124Q28.615625 179.8375 28.896875 179.275L29.56875 179.275L29.56875 187.9ZM32.6 185.65L33.709373 185.55624Q33.834373 186.36874 34.271873 186.775Q34.725 187.18124 35.365623 187.18124Q36.115623 187.18124 36.646873 186.60312Q37.178123 186.025 37.178123 185.0875Q37.178123 184.18124 36.6625 183.66562Q36.1625 183.13437 35.334373 183.13437Q34.834373 183.13437 34.4125 183.36874Q34.00625 183.60312 33.771873 183.9625L32.7875 183.8375L33.615623 179.43124L37.896873 179.43124L37.896873 180.43124L34.459373 180.43124L34.00625 182.74374Q34.771873 182.19687 35.615623 182.19687Q36.740623 182.19687 37.50625 182.97812Q38.2875 183.75937 38.2875 184.99374Q38.2875 186.15 37.615623 187.00937Q36.7875 188.04062 35.365623 188.04062Q34.19375 188.04062 33.44375 187.38437Q32.709373 186.72812 32.6 185.65ZM39.6 183.66562Q39.6 182.13437 39.9125 181.2125Q40.225 180.275 40.834373 179.775Q41.459373 179.275 42.396873 179.275Q43.084373 179.275 43.6 179.55624Q44.13125 179.8375 44.475 180.36874Q44.81875 180.88437 45.00625 181.63437Q45.19375 182.38437 45.19375 183.66562Q45.19375 185.18124 44.88125 186.10312Q44.584373 187.025 43.959373 187.54062Q43.35 188.04062 42.396873 188.04062Q41.1625 188.04062 40.44375 187.15Q39.6 186.0875 39.6 183.66562ZM40.678123 183.66562Q40.678123 185.775 41.178123 186.47812Q41.678123 187.18124 42.396873 187.18124Q43.13125 187.18124 43.615623 186.47812Q44.115623 185.775 44.115623 183.66562Q44.115623 181.54062 43.615623 180.85312Q43.13125 180.15 42.38125 180.15Q41.6625 180.15 41.225 180.75937Q40.678123 181.54062 40.678123 183.66562Z" fill-rule="nonzero"/><path fill="#000000" d="M31.146875 106.55104L31.146875 107.566666L25.459375 107.566666Q25.459375 107.191666 25.584375 106.83229Q25.803125 106.254166 26.271875 105.691666Q26.75625 105.129166 27.6625 104.39479Q29.06875 103.23854 29.553125 102.566666Q30.053125 101.89479 30.053125 101.30104Q30.053125 100.67604 29.6 100.254166Q29.146875 99.816666 28.428125 99.816666Q27.6625 99.816666 27.209375 100.26979Q26.75625 100.722916 26.740625 101.535416L25.6625 101.42604Q25.771875 100.20729 26.490625 99.58229Q27.225 98.941666 28.459375 98.941666Q29.69375 98.941666 30.4125 99.629166Q31.13125 100.316666 31.13125 101.33229Q31.13125 101.847916 30.9125 102.347916Q30.709375 102.83229 30.209375 103.39479Q29.725 103.941666 28.6 104.89479Q27.646875 105.691666 27.365625 105.98854Q27.1 106.26979 26.928125 106.55104L31.146875 106.55104ZM32.6 103.33229Q32.6 101.80104 32.9125 100.879166Q33.225 99.941666 33.834373 99.441666Q34.459373 98.941666 35.396873 98.941666Q36.084373 98.941666 36.6 99.222916Q37.13125 99.504166 37.475 100.035416Q37.81875 100.55104 38.00625 101.30104Q38.19375 102.05104 38.19375 103.33229Q38.19375 104.847916 37.88125 105.76979Q37.584373 106.691666 36.959373 107.20729Q36.35 107.70729 35.396873 107.70729Q34.1625 107.70729 33.44375 106.816666Q32.6 105.754166 32.6 103.33229ZM33.678123 103.33229Q33.678123 105.441666 34.178123 106.14479Q34.678123 106.847916 35.396873 106.847916Q36.13125 106.847916 36.615623 106.14479Q37.115623 105.441666 37.115623 103.33229Q37.115623 101.20729 36.615623 100.51979Q36.13125 99.816666 35.38125 99.816666Q34.6625 99.816666 34.225 100.42604Q33.678123 101.20729 33.678123 103.33229ZM39.6 103.33229Q39.6 101.80104 39.9125 100.879166Q40.225 99.941666 40.834373 99.441666Q41.459373 98.941666 42.396873 98.941666Q43.084373 98.941666 43.6 99.222916Q44.13125 99.504166 44.475 100.035416Q44.81875 100.55104 45.00625 101.30104Q45.19375 102.05104 45.19375 103.33229Q45.19375 104.847916 44.88125 105.76979Q44.584373 106.691666 43.959373 107.20729Q43.35 107.70729 42.396873 107.70729Q41.1625 107.70729 40.44375 106.816666Q39.6 105.754166 39.6 103.33229ZM40.678123 103.33229Q40.678123 105.441666 41.178123 106.14479Q41.678123 106.847916 42.396873 106.847916Q43.13125 106.847916 43.615623 106.14479Q44.115623 105.441666 44.115623 103.33229Q44.115623 101.20729 43.615623 100.51979Q43.13125 99.816666 42.38125 99.816666Q41.6625 99.816666 41.225 100.42604Q40.678123 101.20729 40.678123 103.33229Z" fill-rule="nonzero"/><path fill="#000000" d="M405.0625 438.88437L406.1875 439.18124Q405.82812 440.57187 404.90625 441.30624Q403.98438 442.04062 402.64062 442.04062Q401.25 442.04062 400.375 441.47812Q399.5 440.91562 399.04688 439.85312Q398.59375 438.775 398.59375 437.54062Q398.59375 436.19687 399.10938 435.19687Q399.625 434.19687 400.5625 433.68124Q401.51562 433.16562 402.65625 433.16562Q403.9375 433.16562 404.8125 433.82187Q405.70312 434.47812 406.04688 435.66562L404.92188 435.93124Q404.625 434.99374 404.04688 434.57187Q403.48438 434.13437 402.625 434.13437Q401.64062 434.13437 400.96875 434.61874Q400.3125 435.0875 400.03125 435.88437Q399.76562 436.68124 399.76562 437.54062Q399.76562 438.63437 400.07812 439.44687Q400.40625 440.25937 401.07812 440.66562Q401.75 441.07187 402.54688 441.07187Q403.5 441.07187 404.15625 440.525Q404.82812 439.97812 405.0625 438.88437ZM407.875 441.9L407.875 433.30624L409.01562 433.30624L409.01562 440.88437L413.25 440.88437L413.25 441.9L407.875 441.9ZM414.57812 437.7125Q414.57812 435.57187 415.71875 434.36874Q416.875 433.15 418.6875 433.15Q419.89062 433.15 420.84375 433.72812Q421.79688 434.29062 422.29688 435.30624Q422.79688 436.32187 422.79688 437.61874Q422.79688 438.91562 422.26562 439.94687Q421.73438 440.97812 420.76562 441.50937Q419.8125 442.04062 418.6875 442.04062Q417.46875 442.04062 416.51562 441.4625Q415.5625 440.86874 415.0625 439.86874Q414.57812 438.85312 414.57812 437.7125ZM415.75 437.72812Q415.75 439.29062 416.57812 440.18124Q417.42188 441.07187 418.6875 441.07187Q419.96875 441.07187 420.79688 440.18124Q421.625 439.275 421.625 437.60312Q421.625 436.55624 421.26562 435.775Q420.92188 434.99374 420.23438 434.57187Q419.54688 434.13437 418.70312 434.13437Q417.5 434.13437 416.625 434.9625Q415.75 435.79062 415.75 437.72812ZM429.5625 433.30624L430.70312 433.30624L430.70312 438.275Q430.70312 439.57187 430.40625 440.3375Q430.10938 441.0875 429.34375 441.57187Q428.57812 442.04062 427.34375 442.04062Q426.14062 442.04062 425.35938 441.63437Q424.59375 441.2125 424.26562 440.43124Q423.9375 439.63437 423.9375 438.275L423.9375 433.30624L425.07812 433.30624L425.07812 438.25937Q425.07812 439.38437 425.28125 439.91562Q425.5 440.44687 426.0 440.74374Q426.51562 441.025 427.25 441.025Q428.5 441.025 429.03125 440.4625Q429.5625 439.88437 429.5625 438.25937L429.5625 433.30624ZM432.92188 441.9L432.92188 433.30624L435.89062 433.30624Q436.89062 433.30624 437.42188 433.43124Q438.15625 433.60312 438.67188 434.04062Q439.35938 434.61874 439.6875 435.525Q440.03125 436.41562 440.03125 437.55624Q440.03125 438.54062 439.79688 439.29062Q439.57812 440.04062 439.21875 440.54062Q438.85938 441.04062 438.42188 441.32187Q438.0 441.60312 437.40625 441.75937Q436.8125 441.9 436.03125 441.9L432.92188 441.9ZM434.0625 440.88437L435.89062 440.88437Q436.75 440.88437 437.23438 440.72812Q437.71875 440.57187 438.0 440.275Q438.40625 439.88437 438.625 439.19687Q438.85938 438.50937 438.85938 437.54062Q438.85938 436.19687 438.40625 435.47812Q437.96875 434.74374 437.34375 434.49374Q436.875 434.32187 435.875 434.32187L434.0625 434.32187L434.0625 440.88437Z" fill-rule="nonzero"/><path fill="#93c47d" d="M95.0 67.833336C95.0 67.28105 95.447716 66.833336 96.0 66.833336L106.0 66.833336C106.552284 66.833336 107.0 67.28105 107.0 67.833336L107.0 77.833336C107.0 78.38562 106.552284 78.833336 106.0 78.833336L96.0 78.833336C95.447716 78.833336 95.0 78.38562 95.0 77.833336Z" fill-rule="nonzero"/><path fill="#1a1a1a" d="M119.46875 76.833336L118.421875 76.833336L118.421875 70.114586Q118.03125 70.47396 117.40625 70.84896Q116.796875 71.208336 116.3125 71.38021L116.3125 70.364586Q117.1875 69.94271 117.84375 69.364586Q118.515625 68.770836 118.796875 68.208336L119.46875 68.208336L119.46875 76.833336ZM126.046875 76.833336L126.046875 71.427086L125.109375 71.427086L125.109375 70.614586L126.046875 70.614586L126.046875 69.94271Q126.046875 69.31771 126.15625 69.020836Q126.3125 68.59896 126.6875 68.34896Q127.078125 68.09896 127.765625 68.09896Q128.21875 68.09896 128.75 68.208336L128.59375 69.114586Q128.26562 69.06771 127.96875 69.06771Q127.484375 69.06771 127.28125 69.270836Q127.09375 69.47396 127.09375 70.03646L127.09375 70.614586L128.3125 70.614586L128.3125 71.427086L127.09375 71.427086L127.09375 76.833336L126.046875 76.833336ZM128.79688 69.458336L128.79688 68.239586L129.85938 68.239586L129.85938 69.458336L128.79688 69.458336ZM128.79688 76.833336L128.79688 70.614586L129.85938 70.614586L129.85938 76.833336L128.79688 76.833336ZM131.76562 76.833336L131.76562 68.239586L132.82812 68.239586L132.82812 76.833336L131.76562 76.833336ZM139.04688 74.833336L140.14062 74.958336Q139.89062 75.91146 139.1875 76.44271Q138.48438 76.97396 137.40625 76.97396Q136.04688 76.97396 135.23438 76.13021Q134.4375 75.28646 134.4375 73.770836Q134.4375 72.208336 135.25 71.34896Q136.0625 70.47396 137.34375 70.47396Q138.59375 70.47396 139.375 71.31771Q140.17188 72.16146 140.17188 73.708336Q140.17188 73.802086 140.17188 73.989586L135.53125 73.989586Q135.59375 75.020836 136.10938 75.56771Q136.625 76.09896 137.40625 76.09896Q137.98438 76.09896 138.39062 75.802086Q138.8125 75.489586 139.04688 74.833336ZM135.59375 73.13021L139.0625 73.13021Q139.0 72.333336 138.67188 71.94271Q138.15625 71.333336 137.35938 71.333336Q136.625 71.333336 136.125 71.81771Q135.64062 72.302086 135.59375 73.13021ZM146.8125 79.364586Q145.9375 78.25521 145.32812 76.78646Q144.73438 75.302086 144.73438 73.72396Q144.73438 72.333336 145.17188 71.052086Q145.70312 69.56771 146.8125 68.09896L147.5625 68.09896Q146.85938 69.31771 146.625 69.833336Q146.26562 70.645836 146.0625 71.520836Q145.8125 72.614586 145.8125 73.72396Q145.8125 76.552086 147.5625 79.364586L146.8125 79.364586ZM152.82812 76.833336L152.82812 76.052086Q152.23438 76.97396 151.09375 76.97396Q150.34375 76.97396 149.71875 76.56771Q149.09375 76.145836 148.75 75.41146Q148.40625 74.677086 148.40625 73.72396Q148.40625 72.802086 148.71875 72.03646Q149.03125 71.270836 149.65625 70.88021Q150.28125 70.47396 151.04688 70.47396Q151.60938 70.47396 152.04688 70.708336Q152.48438 70.94271 152.76562 71.31771L152.76562 68.239586L153.8125 68.239586L153.8125 76.833336L152.82812 76.833336ZM149.5 73.72396Q149.5 74.927086 150.0 75.520836Q150.5 76.09896 151.1875 76.09896Q151.875 76.09896 152.35938 75.53646Q152.84375 74.97396 152.84375 73.81771Q152.84375 72.53646 152.34375 71.94271Q151.85938 71.34896 151.14062 71.34896Q150.4375 71.34896 149.96875 71.927086Q149.5 72.489586 149.5 73.72396ZM159.85938 76.06771Q159.26562 76.56771 158.71875 76.770836Q158.1875 76.97396 157.5625 76.97396Q156.53125 76.97396 155.98438 76.47396Q155.4375 75.97396 155.4375 75.19271Q155.4375 74.739586 155.64062 74.364586Q155.84375 73.97396 156.1875 73.75521Q156.53125 73.520836 156.95312 73.41146Q157.25 73.31771 157.89062 73.239586Q159.15625 73.09896 159.76562 72.88021Q159.76562 72.66146 159.76562 72.614586Q159.76562 71.958336 159.46875 71.69271Q159.0625 71.34896 158.26562 71.34896Q157.53125 71.34896 157.17188 71.614586Q156.8125 71.864586 156.64062 72.520836L155.60938 72.38021Q155.75 71.72396 156.07812 71.31771Q156.40625 70.91146 157.01562 70.69271Q157.625 70.47396 158.42188 70.47396Q159.21875 70.47396 159.71875 70.66146Q160.21875 70.84896 160.45312 71.13021Q160.6875 71.41146 160.78125 71.84896Q160.82812 72.114586 160.82812 72.81771L160.82812 74.22396Q160.82812 75.69271 160.89062 76.083336Q160.96875 76.47396 161.17188 76.833336L160.0625 76.833336Q159.90625 76.50521 159.85938 76.06771ZM159.76562 73.708336Q159.1875 73.94271 158.04688 74.114586Q157.39062 74.208336 157.125 74.333336Q156.85938 74.44271 156.70312 74.66146Q156.5625 74.88021 156.5625 75.16146Q156.5625 75.583336 156.875 75.864586Q157.20312 76.145836 157.8125 76.145836Q158.42188 76.145836 158.89062 75.88021Q159.375 75.614586 159.59375 75.145836Q159.76562 74.78646 159.76562 74.09896L159.76562 73.708336ZM162.75 79.22396L162.625 78.239586Q162.96875 78.333336 163.23438 78.333336Q163.57812 78.333336 163.78125 78.208336Q164.0 78.09896 164.14062 77.895836Q164.23438 77.72396 164.46875 77.09896Q164.48438 77.020836 164.5625 76.84896L162.1875 70.614586L163.32812 70.614586L164.625 74.208336Q164.875 74.895836 165.07812 75.66146Q165.26562 74.927086 165.51562 74.239586L166.84375 70.614586L167.89062 70.614586L165.53125 76.94271Q165.14062 77.958336 164.9375 78.34896Q164.65625 78.88021 164.28125 79.114586Q163.92188 79.364586 163.42188 79.364586Q163.125 79.364586 162.75 79.22396ZM167.375 74.97396L168.40625 74.81771Q168.5 75.44271 168.89062 75.770836Q169.29688 76.09896 170.03125 76.09896Q170.75 76.09896 171.09375 75.81771Q171.45312 75.520836 171.45312 75.114586Q171.45312 74.75521 171.14062 74.552086Q170.92188 74.41146 170.0625 74.19271Q168.90625 73.895836 168.45312 73.69271Q168.01562 73.47396 167.78125 73.09896Q167.54688 72.72396 167.54688 72.25521Q167.54688 71.84896 167.73438 71.489586Q167.92188 71.13021 168.25 70.895836Q168.5 70.72396 168.92188 70.59896Q169.34375 70.47396 169.84375 70.47396Q170.5625 70.47396 171.10938 70.69271Q171.67188 70.895836 171.9375 71.25521Q172.20312 71.614586 172.29688 72.208336L171.26562 72.34896Q171.20312 71.88021 170.85938 71.614586Q170.53125 71.333336 169.90625 71.333336Q169.1875 71.333336 168.875 71.583336Q168.5625 71.81771 168.5625 72.145836Q168.5625 72.34896 168.6875 72.50521Q168.82812 72.677086 169.09375 72.78646Q169.25 72.84896 170.03125 73.052086Q171.15625 73.364586 171.59375 73.552086Q172.03125 73.739586 172.28125 74.09896Q172.53125 74.458336 172.53125 75.00521Q172.53125 75.53646 172.21875 76.00521Q171.92188 76.458336 171.34375 76.72396Q170.76562 76.97396 170.03125 76.97396Q168.8125 76.97396 168.17188 76.47396Q167.54688 75.958336 167.375 74.97396ZM173.8125 79.22396L173.8125 78.458336L180.8125 78.458336L180.8125 79.22396L173.8125 79.22396ZM181.375 74.97396L182.40625 74.81771Q182.5 75.44271 182.89062 75.770836Q183.29688 76.09896 184.03125 76.09896Q184.75 76.09896 185.09375 75.81771Q185.45312 75.520836 185.45312 75.114586Q185.45312 74.75521 185.14062 74.552086Q184.92188 74.41146 184.0625 74.19271Q182.90625 73.895836 182.45312 73.69271Q182.01562 73.47396 181.78125 73.09896Q181.54688 72.72396 181.54688 72.25521Q181.54688 71.84896 181.73438 71.489586Q181.92188 71.13021 182.25 70.895836Q182.5 70.72396 182.92188 70.59896Q183.34375 70.47396 183.84375 70.47396Q184.5625 70.47396 185.10938 70.69271Q185.67188 70.895836 185.9375 71.25521Q186.20312 71.614586 186.29688 72.208336L185.26562 72.34896Q185.20312 71.88021 184.85938 71.614586Q184.53125 71.333336 183.90625 71.333336Q183.1875 71.333336 182.875 71.583336Q182.5625 71.81771 182.5625 72.145836Q182.5625 72.34896 182.6875 72.50521Q182.82812 72.677086 183.09375 72.78646Q183.25 72.84896 184.03125 73.052086Q185.15625 73.364586 185.59375 73.552086Q186.03125 73.739586 186.28125 74.09896Q186.53125 74.458336 186.53125 75.00521Q186.53125 75.53646 186.21875 76.00521Q185.92188 76.458336 185.34375 76.72396Q184.76562 76.97396 184.03125 76.97396Q182.8125 76.97396 182.17188 76.47396Q181.54688 75.958336 181.375 74.97396ZM193.04688 74.833336L194.14062 74.958336Q193.89062 75.91146 193.1875 76.44271Q192.48438 76.97396 191.40625 76.97396Q190.04688 76.97396 189.23438 76.13021Q188.4375 75.28646 188.4375 73.770836Q188.4375 72.208336 189.25 71.34896Q190.0625 70.47396 191.34375 70.47396Q192.59375 70.47396 193.375 71.31771Q194.17188 72.16146 194.17188 73.708336Q194.17188 73.802086 194.17188 73.989586L189.53125 73.989586Q189.59375 75.020836 190.10938 75.56771Q190.625 76.09896 191.40625 76.09896Q191.98438 76.09896 192.39062 75.802086Q192.8125 75.489586 193.04688 74.833336ZM189.59375 73.13021L193.0625 73.13021Q193.0 72.333336 192.67188 71.94271Q192.15625 71.333336 191.35938 71.333336Q190.625 71.333336 190.125 71.81771Q189.64062 72.302086 189.59375 73.13021ZM198.09375 75.895836L198.25 76.81771Q197.79688 76.91146 197.45312 76.91146Q196.875 76.91146 196.5625 76.739586Q196.25 76.552086 196.10938 76.25521Q195.98438 75.958336 195.98438 75.00521L195.98438 71.427086L195.21875 71.427086L195.21875 70.614586L195.98438 70.614586L195.98438 69.06771L197.03125 68.44271L197.03125 70.614586L198.09375 70.614586L198.09375 71.427086L197.03125 71.427086L197.03125 75.06771Q197.03125 75.520836 197.07812 75.645836Q197.14062 75.770836 197.26562 75.84896Q197.39062 75.927086 197.625 75.927086Q197.8125 75.927086 198.09375 75.895836ZM198.9375 76.833336L198.9375 68.239586L202.75 68.239586Q203.90625 68.239586 204.5 68.47396Q205.09375 68.708336 205.45312 69.302086Q205.8125 69.88021 205.8125 70.583336Q205.8125 71.50521 205.21875 72.13021Q204.625 72.75521 203.39062 72.927086Q203.84375 73.145836 204.07812 73.34896Q204.57812 73.802086 205.01562 74.489586L206.51562 76.833336L205.07812 76.833336L203.95312 75.052086Q203.45312 74.270836 203.125 73.864586Q202.8125 73.458336 202.54688 73.302086Q202.29688 73.13021 202.03125 73.052086Q201.84375 73.020836 201.40625 73.020836L200.07812 73.020836L200.07812 76.833336L198.9375 76.833336ZM200.07812 72.03646L202.53125 72.03646Q203.29688 72.03646 203.73438 71.88021Q204.1875 71.708336 204.40625 71.364586Q204.64062 71.00521 204.64062 70.583336Q204.64062 69.97396 204.1875 69.583336Q203.75 69.19271 202.79688 69.19271L200.07812 69.19271L200.07812 72.03646ZM212.04688 74.833336L213.14062 74.958336Q212.89062 75.91146 212.1875 76.44271Q211.48438 76.97396 210.40625 76.97396Q209.04688 76.97396 208.23438 76.13021Q207.4375 75.28646 207.4375 73.770836Q207.4375 72.208336 208.25 71.34896Q209.0625 70.47396 210.34375 70.47396Q211.59375 70.47396 212.375 71.31771Q213.17188 72.16146 213.17188 73.708336Q213.17188 73.802086 213.17188 73.989586L208.53125 73.989586Q208.59375 75.020836 209.10938 75.56771Q209.625 76.09896 210.40625 76.09896Q210.98438 76.09896 211.39062 75.802086Q211.8125 75.489586 212.04688 74.833336ZM208.59375 73.13021L212.0625 73.13021Q212.0 72.333336 211.67188 71.94271Q211.15625 71.333336 210.35938 71.333336Q209.625 71.333336 209.125 71.81771Q208.64062 72.302086 208.59375 73.13021ZM214.375 74.97396L215.40625 74.81771Q215.5 75.44271 215.89062 75.770836Q216.29688 76.09896 217.03125 76.09896Q217.75 76.09896 218.09375 75.81771Q218.45312 75.520836 218.45312 75.114586Q218.45312 74.75521 218.14062 74.552086Q217.92188 74.41146 217.0625 74.19271Q215.90625 73.895836 215.45312 73.69271Q215.01562 73.47396 214.78125 73.09896Q214.54688 72.72396 214.54688 72.25521Q214.54688 71.84896 214.73438 71.489586Q214.92188 71.13021 215.25 70.895836Q215.5 70.72396 215.92188 70.59896Q216.34375 70.47396 216.84375 70.47396Q217.5625 70.47396 218.10938 70.69271Q218.67188 70.895836 218.9375 71.25521Q219.20312 71.614586 219.29688 72.208336L218.26562 72.34896Q218.20312 71.88021 217.85938 71.614586Q217.53125 71.333336 216.90625 71.333336Q216.1875 71.333336 215.875 71.583336Q215.5625 71.81771 215.5625 72.145836Q215.5625 72.34896 215.6875 72.50521Q215.82812 72.677086 216.09375 72.78646Q216.25 72.84896 217.03125 73.052086Q218.15625 73.364586 218.59375 73.552086Q219.03125 73.739586 219.28125 74.09896Q219.53125 74.458336 219.53125 75.00521Q219.53125 75.53646 219.21875 76.00521Q218.92188 76.458336 218.34375 76.72396Q217.76562 76.97396 217.03125 76.97396Q215.8125 76.97396 215.17188 76.47396Q214.54688 75.958336 214.375 74.97396ZM222.09375 76.833336L222.09375 75.63021L223.29688 75.63021L223.29688 76.833336L222.09375 76.833336ZM224.79688 79.22396L224.79688 70.614586L225.75 70.614586L225.75 71.41146Q226.09375 70.94271 226.51562 70.708336Q226.95312 70.47396 227.5625 70.47396Q228.35938 70.47396 228.96875 70.88021Q229.57812 71.28646 229.875 72.03646Q230.1875 72.78646 230.1875 73.677086Q230.1875 74.63021 229.84375 75.395836Q229.51562 76.16146 228.85938 76.56771Q228.20312 76.97396 227.48438 76.97396Q226.95312 76.97396 226.53125 76.75521Q226.10938 76.520836 225.84375 76.19271L225.84375 79.22396L224.79688 79.22396ZM225.75 73.75521Q225.75 74.958336 226.23438 75.53646Q226.71875 76.09896 227.40625 76.09896Q228.10938 76.09896 228.60938 75.50521Q229.10938 74.91146 229.10938 73.66146Q229.10938 72.47396 228.625 71.895836Q228.14062 71.302086 227.45312 71.302086Q226.78125 71.302086 226.26562 71.927086Q225.75 72.552086 225.75 73.75521ZM231.75 79.22396L231.625 78.239586Q231.96875 78.333336 232.23438 78.333336Q232.57812 78.333336 232.78125 78.208336Q233.0 78.09896 233.14062 77.895836Q233.23438 77.72396 233.46875 77.09896Q233.48438 77.020836 233.5625 76.84896L231.1875 70.614586L232.32812 70.614586L233.625 74.208336Q233.875 74.895836 234.07812 75.66146Q234.26562 74.927086 234.51562 74.239586L235.84375 70.614586L236.89062 70.614586L234.53125 76.94271Q234.14062 77.958336 233.9375 78.34896Q233.65625 78.88021 233.28125 79.114586Q232.92188 79.364586 232.42188 79.364586Q232.125 79.364586 231.75 79.22396ZM237.48438 79.364586L236.73438 79.364586Q238.48438 76.552086 238.48438 73.72396Q238.48438 72.63021 238.23438 71.53646Q238.03125 70.66146 237.67188 69.84896Q237.4375 69.333336 236.73438 68.09896L237.48438 68.09896Q238.57812 69.56771 239.10938 71.052086Q239.5625 72.333336 239.5625 73.72396Q239.5625 75.302086 238.95312 76.78646Q238.34375 78.25521 237.48438 79.364586Z" fill-rule="nonzero"/><path fill="#6aa84f" d="M256.0 67.833336C256.0 67.28105 256.44772 66.833336 257.0 66.833336L267.0 66.833336C267.55228 66.833336 268.0 67.28105 268.0 67.833336L268.0 77.833336C268.0 78.38562 267.55228 78.833336 267.0 78.833336L257.0 78.833336C256.44772 78.833336 256.0 78.38562 256.0 77.833336Z" fill-rule="nonzero"/><path fill="#1a1a1a" d="M276.79688 76.833336L276.79688 70.614586L277.73438 70.614586L277.73438 71.489586Q278.03125 71.020836 278.51562 70.75521Q279.0 70.47396 279.625 70.47396Q280.3125 70.47396 280.75 70.75521Q281.20312 71.03646 281.375 71.552086Q282.125 70.47396 283.29688 70.47396Q284.23438 70.47396 284.71875 70.989586Q285.21875 71.489586 285.21875 72.56771L285.21875 76.833336L284.17188 76.833336L284.17188 72.91146Q284.17188 72.28646 284.0625 72.00521Q283.96875 71.72396 283.70312 71.552086Q283.4375 71.38021 283.0625 71.38021Q282.40625 71.38021 281.96875 71.81771Q281.54688 72.25521 281.54688 73.22396L281.54688 76.833336L280.48438 76.833336L280.48438 72.78646Q280.48438 72.083336 280.21875 71.739586Q279.96875 71.38021 279.39062 71.38021Q278.9375 71.38021 278.5625 71.614586Q278.1875 71.84896 278.01562 72.302086Q277.84375 72.75521 277.84375 73.59896L277.84375 76.833336L276.79688 76.833336ZM291.85938 76.06771Q291.26562 76.56771 290.71875 76.770836Q290.1875 76.97396 289.5625 76.97396Q288.53125 76.97396 287.98438 76.47396Q287.4375 75.97396 287.4375 75.19271Q287.4375 74.739586 287.64062 74.364586Q287.84375 73.97396 288.1875 73.75521Q288.53125 73.520836 288.95312 73.41146Q289.25 73.31771 289.89062 73.239586Q291.15625 73.09896 291.76562 72.88021Q291.76562 72.66146 291.76562 72.614586Q291.76562 71.958336 291.46875 71.69271Q291.0625 71.34896 290.26562 71.34896Q289.53125 71.34896 289.17188 71.614586Q288.8125 71.864586 288.64062 72.520836L287.60938 72.38021Q287.75 71.72396 288.07812 71.31771Q288.40625 70.91146 289.01562 70.69271Q289.625 70.47396 290.42188 70.47396Q291.21875 70.47396 291.71875 70.66146Q292.21875 70.84896 292.45312 71.13021Q292.6875 71.41146 292.78125 71.84896Q292.82812 72.114586 292.82812 72.81771L292.82812 74.22396Q292.82812 75.69271 292.89062 76.083336Q292.96875 76.47396 293.17188 76.833336L292.0625 76.833336Q291.90625 76.50521 291.85938 76.06771ZM291.76562 73.708336Q291.1875 73.94271 290.04688 74.114586Q289.39062 74.208336 289.125 74.333336Q288.85938 74.44271 288.70312 74.66146Q288.5625 74.88021 288.5625 75.16146Q288.5625 75.583336 288.875 75.864586Q289.20312 76.145836 289.8125 76.145836Q290.42188 76.145836 290.89062 75.88021Q291.375 75.614586 291.59375 75.145836Q291.76562 74.78646 291.76562 74.09896L291.76562 73.708336ZM294.79688 76.833336L294.79688 70.614586L295.73438 70.614586L295.73438 71.489586Q296.42188 70.47396 297.71875 70.47396Q298.28125 70.47396 298.75 70.677086Q299.23438 70.88021 299.46875 71.208336Q299.70312 71.53646 299.79688 71.97396Q299.84375 72.270836 299.84375 73.00521L299.84375 76.833336L298.79688 76.833336L298.79688 73.052086Q298.79688 72.395836 298.67188 72.083336Q298.54688 71.770836 298.23438 71.583336Q297.92188 71.38021 297.5 71.38021Q296.82812 71.38021 296.32812 71.81771Q295.84375 72.239586 295.84375 73.427086L295.84375 76.833336L294.79688 76.833336ZM301.75 79.22396L301.625 78.239586Q301.96875 78.333336 302.23438 78.333336Q302.57812 78.333336 302.78125 78.208336Q303.0 78.09896 303.14062 77.895836Q303.23438 77.72396 303.46875 77.09896Q303.48438 77.020836 303.5625 76.84896L301.1875 70.614586L302.32812 70.614586L303.625 74.208336Q303.875 74.895836 304.07812 75.66146Q304.26562 74.927086 304.51562 74.239586L305.84375 70.614586L306.89062 70.614586L304.53125 76.94271Q304.14062 77.958336 303.9375 78.34896Q303.65625 78.88021 303.28125 79.114586Q302.92188 79.364586 302.42188 79.364586Q302.125 79.364586 301.75 79.22396ZM310.04688 76.833336L310.04688 71.427086L309.10938 71.427086L309.10938 70.614586L310.04688 70.614586L310.04688 69.94271Q310.04688 69.31771 310.15625 69.020836Q310.3125 68.59896 310.6875 68.34896Q311.07812 68.09896 311.76562 68.09896Q312.21875 68.09896 312.75 68.208336L312.59375 69.114586Q312.26562 69.06771 311.96875 69.06771Q311.48438 69.06771 311.28125 69.270836Q311.09375 69.47396 311.09375 70.03646L311.09375 70.614586L312.3125 70.614586L312.3125 71.427086L311.09375 71.427086L311.09375 76.833336L310.04688 76.833336ZM312.79688 69.458336L312.79688 68.239586L313.85938 68.239586L313.85938 69.458336L312.79688 69.458336ZM312.79688 76.833336L312.79688 70.614586L313.85938 70.614586L313.85938 76.833336L312.79688 76.833336ZM315.76562 76.833336L315.76562 68.239586L316.82812 68.239586L316.82812 76.833336L315.76562 76.833336ZM323.04688 74.833336L324.14062 74.958336Q323.89062 75.91146 323.1875 76.44271Q322.48438 76.97396 321.40625 76.97396Q320.04688 76.97396 319.23438 76.13021Q318.4375 75.28646 318.4375 73.770836Q318.4375 72.208336 319.25 71.34896Q320.0625 70.47396 321.34375 70.47396Q322.59375 70.47396 323.375 71.31771Q324.17188 72.16146 324.17188 73.708336Q324.17188 73.802086 324.17188 73.989586L319.53125 73.989586Q319.59375 75.020836 320.10938 75.56771Q320.625 76.09896 321.40625 76.09896Q321.98438 76.09896 322.39062 75.802086Q322.8125 75.489586 323.04688 74.833336ZM319.59375 73.13021L323.0625 73.13021Q323.0 72.333336 322.67188 71.94271Q322.15625 71.333336 321.35938 71.333336Q320.625 71.333336 320.125 71.81771Q319.64062 72.302086 319.59375 73.13021ZM330.8125 79.364586Q329.9375 78.25521 329.32812 76.78646Q328.73438 75.302086 328.73438 73.72396Q328.73438 72.333336 329.17188 71.052086Q329.70312 69.56771 330.8125 68.09896L331.5625 68.09896Q330.85938 69.31771 330.625 69.833336Q330.26562 70.645836 330.0625 71.520836Q329.8125 72.614586 329.8125 73.72396Q329.8125 76.552086 331.5625 79.364586L330.8125 79.364586ZM336.82812 76.833336L336.82812 76.052086Q336.23438 76.97396 335.09375 76.97396Q334.34375 76.97396 333.71875 76.56771Q333.09375 76.145836 332.75 75.41146Q332.40625 74.677086 332.40625 73.72396Q332.40625 72.802086 332.71875 72.03646Q333.03125 71.270836 333.65625 70.88021Q334.28125 70.47396 335.04688 70.47396Q335.60938 70.47396 336.04688 70.708336Q336.48438 70.94271 336.76562 71.31771L336.76562 68.239586L337.8125 68.239586L337.8125 76.833336L336.82812 76.833336ZM333.5 73.72396Q333.5 74.927086 334.0 75.520836Q334.5 76.09896 335.1875 76.09896Q335.875 76.09896 336.35938 75.53646Q336.84375 74.97396 336.84375 73.81771Q336.84375 72.53646 336.34375 71.94271Q335.85938 71.34896 335.14062 71.34896Q334.4375 71.34896 333.96875 71.927086Q333.5 72.489586 333.5 73.72396ZM343.85938 76.06771Q343.26562 76.56771 342.71875 76.770836Q342.1875 76.97396 341.5625 76.97396Q340.53125 76.97396 339.98438 76.47396Q339.4375 75.97396 339.4375 75.19271Q339.4375 74.739586 339.64062 74.364586Q339.84375 73.97396 340.1875 73.75521Q340.53125 73.520836 340.95312 73.41146Q341.25 73.31771 341.89062 73.239586Q343.15625 73.09896 343.76562 72.88021Q343.76562 72.66146 343.76562 72.614586Q343.76562 71.958336 343.46875 71.69271Q343.0625 71.34896 342.26562 71.34896Q341.53125 71.34896 341.17188 71.614586Q340.8125 71.864586 340.64062 72.520836L339.60938 72.38021Q339.75 71.72396 340.07812 71.31771Q340.40625 70.91146 341.01562 70.69271Q341.625 70.47396 342.42188 70.47396Q343.21875 70.47396 343.71875 70.66146Q344.21875 70.84896 344.45312 71.13021Q344.6875 71.41146 344.78125 71.84896Q344.82812 72.114586 344.82812 72.81771L344.82812 74.22396Q344.82812 75.69271 344.89062 76.083336Q344.96875 76.47396 345.17188 76.833336L344.0625 76.833336Q343.90625 76.50521 343.85938 76.06771ZM343.76562 73.708336Q343.1875 73.94271 342.04688 74.114586Q341.39062 74.208336 341.125 74.333336Q340.85938 74.44271 340.70312 74.66146Q340.5625 74.88021 340.5625 75.16146Q340.5625 75.583336 340.875 75.864586Q341.20312 76.145836 341.8125 76.145836Q342.42188 76.145836 342.89062 75.88021Q343.375 75.614586 343.59375 75.145836Q343.76562 74.78646 343.76562 74.09896L343.76562 73.708336ZM346.75 79.22396L346.625 78.239586Q346.96875 78.333336 347.23438 78.333336Q347.57812 78.333336 347.78125 78.208336Q348.0 78.09896 348.14062 77.895836Q348.23438 77.72396 348.46875 77.09896Q348.48438 77.020836 348.5625 76.84896L346.1875 70.614586L347.32812 70.614586L348.625 74.208336Q348.875 74.895836 349.07812 75.66146Q349.26562 74.927086 349.51562 74.239586L350.84375 70.614586L351.89062 70.614586L349.53125 76.94271Q349.14062 77.958336 348.9375 78.34896Q348.65625 78.88021 348.28125 79.114586Q347.92188 79.364586 347.42188 79.364586Q347.125 79.364586 346.75 79.22396ZM351.375 74.97396L352.40625 74.81771Q352.5 75.44271 352.89062 75.770836Q353.29688 76.09896 354.03125 76.09896Q354.75 76.09896 355.09375 75.81771Q355.45312 75.520836 355.45312 75.114586Q355.45312 74.75521 355.14062 74.552086Q354.92188 74.41146 354.0625 74.19271Q352.90625 73.895836 352.45312 73.69271Q352.01562 73.47396 351.78125 73.09896Q351.54688 72.72396 351.54688 72.25521Q351.54688 71.84896 351.73438 71.489586Q351.92188 71.13021 352.25 70.895836Q352.5 70.72396 352.92188 70.59896Q353.34375 70.47396 353.84375 70.47396Q354.5625 70.47396 355.10938 70.69271Q355.67188 70.895836 355.9375 71.25521Q356.20312 71.614586 356.29688 72.208336L355.26562 72.34896Q355.20312 71.88021 354.85938 71.614586Q354.53125 71.333336 353.90625 71.333336Q353.1875 71.333336 352.875 71.583336Q352.5625 71.81771 352.5625 72.145836Q352.5625 72.34896 352.6875 72.50521Q352.82812 72.677086 353.09375 72.78646Q353.25 72.84896 354.03125 73.052086Q355.15625 73.364586 355.59375 73.552086Q356.03125 73.739586 356.28125 74.09896Q356.53125 74.458336 356.53125 75.00521Q356.53125 75.53646 356.21875 76.00521Q355.92188 76.458336 355.34375 76.72396Q354.76562 76.97396 354.03125 76.97396Q352.8125 76.97396 352.17188 76.47396Q351.54688 75.958336 351.375 74.97396ZM357.8125 79.22396L357.8125 78.458336L364.8125 78.458336L364.8125 79.22396L357.8125 79.22396ZM365.375 74.97396L366.40625 74.81771Q366.5 75.44271 366.89062 75.770836Q367.29688 76.09896 368.03125 76.09896Q368.75 76.09896 369.09375 75.81771Q369.45312 75.520836 369.45312 75.114586Q369.45312 74.75521 369.14062 74.552086Q368.92188 74.41146 368.0625 74.19271Q366.90625 73.895836 366.45312 73.69271Q366.01562 73.47396 365.78125 73.09896Q365.54688 72.72396 365.54688 72.25521Q365.54688 71.84896 365.73438 71.489586Q365.92188 71.13021 366.25 70.895836Q366.5 70.72396 366.92188 70.59896Q367.34375 70.47396 367.84375 70.47396Q368.5625 70.47396 369.10938 70.69271Q369.67188 70.895836 369.9375 71.25521Q370.20312 71.614586 370.29688 72.208336L369.26562 72.34896Q369.20312 71.88021 368.85938 71.614586Q368.53125 71.333336 367.90625 71.333336Q367.1875 71.333336 366.875 71.583336Q366.5625 71.81771 366.5625 72.145836Q366.5625 72.34896 366.6875 72.50521Q366.82812 72.677086 367.09375 72.78646Q367.25 72.84896 368.03125 73.052086Q369.15625 73.364586 369.59375 73.552086Q370.03125 73.739586 370.28125 74.09896Q370.53125 74.458336 370.53125 75.00521Q370.53125 75.53646 370.21875 76.00521Q369.92188 76.458336 369.34375 76.72396Q368.76562 76.97396 368.03125 76.97396Q366.8125 76.97396 366.17188 76.47396Q365.54688 75.958336 365.375 74.97396ZM377.04688 74.833336L378.14062 74.958336Q377.89062 75.91146 377.1875 76.44271Q376.48438 76.97396 375.40625 76.97396Q374.04688 76.97396 373.23438 76.13021Q372.4375 75.28646 372.4375 73.770836Q372.4375 72.208336 373.25 71.34896Q374.0625 70.47396 375.34375 70.47396Q376.59375 70.47396 377.375 71.31771Q378.17188 72.16146 378.17188 73.708336Q378.17188 73.802086 378.17188 73.989586L373.53125 73.989586Q373.59375 75.020836 374.10938 75.56771Q374.625 76.09896 375.40625 76.09896Q375.98438 76.09896 376.39062 75.802086Q376.8125 75.489586 377.04688 74.833336ZM373.59375 73.13021L377.0625 73.13021Q377.0 72.333336 376.67188 71.94271Q376.15625 71.333336 375.35938 71.333336Q374.625 71.333336 374.125 71.81771Q373.64062 72.302086 373.59375 73.13021ZM382.09375 75.895836L382.25 76.81771Q381.79688 76.91146 381.45312 76.91146Q380.875 76.91146 380.5625 76.739586Q380.25 76.552086 380.10938 76.25521Q379.98438 75.958336 379.98438 75.00521L379.98438 71.427086L379.21875 71.427086L379.21875 70.614586L379.98438 70.614586L379.98438 69.06771L381.03125 68.44271L381.03125 70.614586L382.09375 70.614586L382.09375 71.427086L381.03125 71.427086L381.03125 75.06771Q381.03125 75.520836 381.07812 75.645836Q381.14062 75.770836 381.26562 75.84896Q381.39062 75.927086 381.625 75.927086Q381.8125 75.927086 382.09375 75.895836ZM382.9375 76.833336L382.9375 68.239586L386.75 68.239586Q387.90625 68.239586 388.5 68.47396Q389.09375 68.708336 389.45312 69.302086Q389.8125 69.88021 389.8125 70.583336Q389.8125 71.50521 389.21875 72.13021Q388.625 72.75521 387.39062 72.927086Q387.84375 73.145836 388.07812 73.34896Q388.57812 73.802086 389.01562 74.489586L390.51562 76.833336L389.07812 76.833336L387.95312 75.052086Q387.45312 74.270836 387.125 73.864586Q386.8125 73.458336 386.54688 73.302086Q386.29688 73.13021 386.03125 73.052086Q385.84375 73.020836 385.40625 73.020836L384.07812 73.020836L384.07812 76.833336L382.9375 76.833336ZM384.07812 72.03646L386.53125 72.03646Q387.29688 72.03646 387.73438 71.88021Q388.1875 71.708336 388.40625 71.364586Q388.64062 71.00521 388.64062 70.583336Q388.64062 69.97396 388.1875 69.583336Q387.75 69.19271 386.79688 69.19271L384.07812 69.19271L384.07812 72.03646ZM396.04688 74.833336L397.14062 74.958336Q396.89062 75.91146 396.1875 76.44271Q395.48438 76.97396 394.40625 76.97396Q393.04688 76.97396 392.23438 76.13021Q391.4375 75.28646 391.4375 73.770836Q391.4375 72.208336 392.25 71.34896Q393.0625 70.47396 394.34375 70.47396Q395.59375 70.47396 396.375 71.31771Q397.17188 72.16146 397.17188 73.708336Q397.17188 73.802086 397.17188 73.989586L392.53125 73.989586Q392.59375 75.020836 393.10938 75.56771Q393.625 76.09896 394.40625 76.09896Q394.98438 76.09896 395.39062 75.802086Q395.8125 75.489586 396.04688 74.833336ZM392.59375 73.13021L396.0625 73.13021Q396.0 72.333336 395.67188 71.94271Q395.15625 71.333336 394.35938 71.333336Q393.625 71.333336 393.125 71.81771Q392.64062 72.302086 392.59375 73.13021ZM398.375 74.97396L399.40625 74.81771Q399.5 75.44271 399.89062 75.770836Q400.29688 76.09896 401.03125 76.09896Q401.75 76.09896 402.09375 75.81771Q402.45312 75.520836 402.45312 75.114586Q402.45312 74.75521 402.14062 74.552086Q401.92188 74.41146 401.0625 74.19271Q399.90625 73.895836 399.45312 73.69271Q399.01562 73.47396 398.78125 73.09896Q398.54688 72.72396 398.54688 72.25521Q398.54688 71.84896 398.73438 71.489586Q398.92188 71.13021 399.25 70.895836Q399.5 70.72396 399.92188 70.59896Q400.34375 70.47396 400.84375 70.47396Q401.5625 70.47396 402.10938 70.69271Q402.67188 70.895836 402.9375 71.25521Q403.20312 71.614586 403.29688 72.208336L402.26562 72.34896Q402.20312 71.88021 401.85938 71.614586Q401.53125 71.333336 400.90625 71.333336Q400.1875 71.333336 399.875 71.583336Q399.5625 71.81771 399.5625 72.145836Q399.5625 72.34896 399.6875 72.50521Q399.82812 72.677086 400.09375 72.78646Q400.25 72.84896 401.03125 73.052086Q402.15625 73.364586 402.59375 73.552086Q403.03125 73.739586 403.28125 74.09896Q403.53125 74.458336 403.53125 75.00521Q403.53125 75.53646 403.21875 76.00521Q402.92188 76.458336 402.34375 76.72396Q401.76562 76.97396 401.03125 76.97396Q399.8125 76.97396 399.17188 76.47396Q398.54688 75.958336 398.375 74.97396ZM406.09375 76.833336L406.09375 75.63021L407.29688 75.63021L407.29688 76.833336L406.09375 76.833336ZM408.79688 79.22396L408.79688 70.614586L409.75 70.614586L409.75 71.41146Q410.09375 70.94271 410.51562 70.708336Q410.95312 70.47396 411.5625 70.47396Q412.35938 70.47396 412.96875 70.88021Q413.57812 71.28646 413.875 72.03646Q414.1875 72.78646 414.1875 73.677086Q414.1875 74.63021 413.84375 75.395836Q413.51562 76.16146 412.85938 76.56771Q412.20312 76.97396 411.48438 76.97396Q410.95312 76.97396 410.53125 76.75521Q410.10938 76.520836 409.84375 76.19271L409.84375 79.22396L408.79688 79.22396ZM409.75 73.75521Q409.75 74.958336 410.23438 75.53646Q410.71875 76.09896 411.40625 76.09896Q412.10938 76.09896 412.60938 75.50521Q413.10938 74.91146 413.10938 73.66146Q413.10938 72.47396 412.625 71.895836Q412.14062 71.302086 411.45312 71.302086Q410.78125 71.302086 410.26562 71.927086Q409.75 72.552086 409.75 73.75521ZM415.75 79.22396L415.625 78.239586Q415.96875 78.333336 416.23438 78.333336Q416.57812 78.333336 416.78125 78.208336Q417.0 78.09896 417.14062 77.895836Q417.23438 77.72396 417.46875 77.09896Q417.48438 77.020836 417.5625 76.84896L415.1875 70.614586L416.32812 70.614586L417.625 74.208336Q417.875 74.895836 418.07812 75.66146Q418.26562 74.927086 418.51562 74.239586L419.84375 70.614586L420.89062 70.614586L418.53125 76.94271Q418.14062 77.958336 417.9375 78.34896Q417.65625 78.88021 417.28125 79.114586Q416.92188 79.364586 416.42188 79.364586Q416.125 79.364586 415.75 79.22396ZM421.48438 79.364586L420.73438 79.364586Q422.48438 76.552086 422.48438 73.72396Q422.48438 72.63021 422.23438 71.53646Q422.03125 70.66146 421.67188 69.84896Q421.4375 69.333336 420.73438 68.09896L421.48438 68.09896Q422.57812 69.56771 423.10938 71.052086Q423.5625 72.333336 423.5625 73.72396Q423.5625 75.302086 422.95312 76.78646Q422.34375 78.25521 421.48438 79.364586Z" fill-rule="nonzero"/><path fill="#e06666" d="M440.0 67.833336C440.0 67.28105 440.44772 66.833336 441.0 66.833336L451.0 66.833336C451.55228 66.833336 452.0 67.28105 452.0 67.833336L452.0 77.833336C452.0 78.38562 451.55228 78.833336 451.0 78.833336L441.0 78.833336C440.44772 78.833336 440.0 78.38562 440.0 77.833336Z" fill-rule="nonzero"/><path fill="#1a1a1a" d="M464.46875 76.833336L463.42188 76.833336L463.42188 70.114586Q463.03125 70.47396 462.40625 70.84896Q461.79688 71.208336 461.3125 71.38021L461.3125 70.364586Q462.1875 69.94271 462.84375 69.364586Q463.51562 68.770836 463.79688 68.208336L464.46875 68.208336L464.46875 76.833336ZM471.04688 76.833336L471.04688 71.427086L470.10938 71.427086L470.10938 70.614586L471.04688 70.614586L471.04688 69.94271Q471.04688 69.31771 471.15625 69.020836Q471.3125 68.59896 471.6875 68.34896Q472.07812 68.09896 472.76562 68.09896Q473.21875 68.09896 473.75 68.208336L473.59375 69.114586Q473.26562 69.06771 472.96875 69.06771Q472.48438 69.06771 472.28125 69.270836Q472.09375 69.47396 472.09375 70.03646L472.09375 70.614586L473.3125 70.614586L473.3125 71.427086L472.09375 71.427086L472.09375 76.833336L471.04688 76.833336ZM473.79688 69.458336L473.79688 68.239586L474.85938 68.239586L474.85938 69.458336L473.79688 69.458336ZM473.79688 76.833336L473.79688 70.614586L474.85938 70.614586L474.85938 76.833336L473.79688 76.833336ZM476.76562 76.833336L476.76562 68.239586L477.82812 68.239586L477.82812 76.833336L476.76562 76.833336ZM484.04688 74.833336L485.14062 74.958336Q484.89062 75.91146 484.1875 76.44271Q483.48438 76.97396 482.40625 76.97396Q481.04688 76.97396 480.23438 76.13021Q479.4375 75.28646 479.4375 73.770836Q479.4375 72.208336 480.25 71.34896Q481.0625 70.47396 482.34375 70.47396Q483.59375 70.47396 484.375 71.31771Q485.17188 72.16146 485.17188 73.708336Q485.17188 73.802086 485.17188 73.989586L480.53125 73.989586Q480.59375 75.020836 481.10938 75.56771Q481.625 76.09896 482.40625 76.09896Q482.98438 76.09896 483.39062 75.802086Q483.8125 75.489586 484.04688 74.833336ZM480.59375 73.13021L484.0625 73.13021Q484.0 72.333336 483.67188 71.94271Q483.15625 71.333336 482.35938 71.333336Q481.625 71.333336 481.125 71.81771Q480.64062 72.302086 480.59375 73.13021ZM491.8125 79.364586Q490.9375 78.25521 490.32812 76.78646Q489.73438 75.302086 489.73438 73.72396Q489.73438 72.333336 490.17188 71.052086Q490.70312 69.56771 491.8125 68.09896L492.5625 68.09896Q491.85938 69.31771 491.625 69.833336Q491.26562 70.645836 491.0625 71.520836Q490.8125 72.614586 490.8125 73.72396Q490.8125 76.552086 492.5625 79.364586L491.8125 79.364586ZM493.59375 77.34896L494.625 77.50521Q494.6875 77.97396 494.98438 78.19271Q495.375 78.489586 496.04688 78.489586Q496.78125 78.489586 497.17188 78.19271Q497.57812 77.895836 497.71875 77.38021Q497.8125 77.052086 497.79688 76.020836Q497.10938 76.833336 496.07812 76.833336Q494.79688 76.833336 494.09375 75.91146Q493.39062 74.97396 493.39062 73.69271Q493.39062 72.802086 493.70312 72.052086Q494.03125 71.28646 494.64062 70.88021Q495.25 70.47396 496.07812 70.47396Q497.1875 70.47396 497.90625 71.364586L497.90625 70.614586L498.875 70.614586L498.875 75.989586Q498.875 77.44271 498.57812 78.052086Q498.28125 78.66146 497.64062 79.00521Q497.0 79.364586 496.0625 79.364586Q494.95312 79.364586 494.26562 78.864586Q493.57812 78.364586 493.59375 77.34896ZM494.46875 73.614586Q494.46875 74.833336 494.95312 75.395836Q495.4375 75.958336 496.17188 75.958336Q496.90625 75.958336 497.39062 75.395836Q497.89062 74.833336 497.89062 73.645836Q497.89062 72.50521 497.375 71.927086Q496.875 71.34896 496.15625 71.34896Q495.45312 71.34896 494.95312 71.927086Q494.46875 72.489586 494.46875 73.614586ZM505.04688 74.833336L506.14062 74.958336Q505.89062 75.91146 505.1875 76.44271Q504.48438 76.97396 503.40625 76.97396Q502.04688 76.97396 501.23438 76.13021Q500.4375 75.28646 500.4375 73.770836Q500.4375 72.208336 501.25 71.34896Q502.0625 70.47396 503.34375 70.47396Q504.59375 70.47396 505.375 71.31771Q506.17188 72.16146 506.17188 73.708336Q506.17188 73.802086 506.17188 73.989586L501.53125 73.989586Q501.59375 75.020836 502.10938 75.56771Q502.625 76.09896 503.40625 76.09896Q503.98438 76.09896 504.39062 75.802086Q504.8125 75.489586 505.04688 74.833336ZM501.59375 73.13021L505.0625 73.13021Q505.0 72.333336 504.67188 71.94271Q504.15625 71.333336 503.35938 71.333336Q502.625 71.333336 502.125 71.81771Q501.64062 72.302086 501.59375 73.13021ZM510.09375 75.895836L510.25 76.81771Q509.79688 76.91146 509.45312 76.91146Q508.875 76.91146 508.5625 76.739586Q508.25 76.552086 508.10938 76.25521Q507.98438 75.958336 507.98438 75.00521L507.98438 71.427086L507.21875 71.427086L507.21875 70.614586L507.98438 70.614586L507.98438 69.06771L509.03125 68.44271L509.03125 70.614586L510.09375 70.614586L510.09375 71.427086L509.03125 71.427086L509.03125 75.06771Q509.03125 75.520836 509.07812 75.645836Q509.14062 75.770836 509.26562 75.84896Q509.39062 75.927086 509.625 75.927086Q509.8125 75.927086 510.09375 75.895836ZM509.98438 76.833336L513.28125 68.239586L514.5 68.239586L518.0156 76.833336L516.7344 76.833336L515.71875 74.22396L512.1406 74.22396L511.1875 76.833336L509.98438 76.833336ZM512.46875 73.302086L515.375 73.302086L514.4844 70.927086Q514.0625 69.84896 513.875 69.145836Q513.7031 69.97396 513.40625 70.78646L512.46875 73.302086ZM520.375 76.833336L517.0469 68.239586L518.28125 68.239586L520.5156 74.489586Q520.78125 75.239586 520.96875 75.895836Q521.1719 75.19271 521.4375 74.489586L523.75 68.239586L524.90625 68.239586L521.5469 76.833336L520.375 76.833336ZM528.9531 73.458336L528.9531 72.458336L532.5781 72.44271L532.5781 75.63021Q531.75 76.302086 530.8594 76.645836Q529.96875 76.97396 529.03125 76.97396Q527.7656 76.97396 526.71875 76.44271Q525.6875 75.895836 525.15625 74.88021Q524.6406 73.84896 524.6406 72.583336Q524.6406 71.31771 525.15625 70.239586Q525.6875 69.145836 526.6719 68.63021Q527.65625 68.09896 528.9375 68.09896Q529.875 68.09896 530.625 68.395836Q531.375 68.69271 531.7969 69.239586Q532.2344 69.770836 532.4531 70.645836L531.4375 70.927086Q531.2344 70.270836 530.9375 69.895836Q530.65625 69.520836 530.125 69.302086Q529.59375 69.06771 528.9531 69.06771Q528.1719 69.06771 527.59375 69.302086Q527.03125 69.53646 526.6719 69.927086Q526.3281 70.31771 526.1406 70.78646Q525.8125 71.583336 525.8125 72.50521Q525.8125 73.66146 526.2031 74.44271Q526.6094 75.208336 527.3594 75.583336Q528.1094 75.958336 528.96875 75.958336Q529.7031 75.958336 530.40625 75.677086Q531.1094 75.38021 531.46875 75.06771L531.46875 73.458336L528.9531 73.458336ZM533.375 74.97396L534.40625 74.81771Q534.5 75.44271 534.8906 75.770836Q535.2969 76.09896 536.03125 76.09896Q536.75 76.09896 537.09375 75.81771Q537.4531 75.520836 537.4531 75.114586Q537.4531 74.75521 537.1406 74.552086Q536.9219 74.41146 536.0625 74.19271Q534.90625 73.895836 534.4531 73.69271Q534.0156 73.47396 533.78125 73.09896Q533.5469 72.72396 533.5469 72.25521Q533.5469 71.84896 533.7344 71.489586Q533.9219 71.13021 534.25 70.895836Q534.5 70.72396 534.9219 70.59896Q535.34375 70.47396 535.84375 70.47396Q536.5625 70.47396 537.1094 70.69271Q537.6719 70.895836 537.9375 71.25521Q538.2031 71.614586 538.2969 72.208336L537.2656 72.34896Q537.2031 71.88021 536.8594 71.614586Q536.53125 71.333336 535.90625 71.333336Q535.1875 71.333336 534.875 71.583336Q534.5625 71.81771 534.5625 72.145836Q534.5625 72.34896 534.6875 72.50521Q534.8281 72.677086 535.09375 72.78646Q535.25 72.84896 536.03125 73.052086Q537.15625 73.364586 537.59375 73.552086Q538.03125 73.739586 538.28125 74.09896Q538.53125 74.458336 538.53125 75.00521Q538.53125 75.53646 538.21875 76.00521Q537.9219 76.458336 537.34375 76.72396Q536.7656 76.97396 536.03125 76.97396Q534.8125 76.97396 534.1719 76.47396Q533.5469 75.958336 533.375 74.97396ZM541.09375 76.833336L541.09375 75.63021L542.2969 75.63021L542.2969 76.833336L541.09375 76.833336ZM543.7969 79.22396L543.7969 70.614586L544.75 70.614586L544.75 71.41146Q545.09375 70.94271 545.5156 70.708336Q545.9531 70.47396 546.5625 70.47396Q547.3594 70.47396 547.96875 70.88021Q548.5781 71.28646 548.875 72.03646Q549.1875 72.78646 549.1875 73.677086Q549.1875 74.63021 548.84375 75.395836Q548.5156 76.16146 547.8594 76.56771Q547.2031 76.97396 546.4844 76.97396Q545.9531 76.97396 545.53125 76.75521Q545.1094 76.520836 544.84375 76.19271L544.84375 79.22396L543.7969 79.22396ZM544.75 73.75521Q544.75 74.958336 545.2344 75.53646Q545.71875 76.09896 546.40625 76.09896Q547.1094 76.09896 547.6094 75.50521Q548.1094 74.91146 548.1094 73.66146Q548.1094 72.47396 547.625 71.895836Q547.1406 71.302086 546.4531 71.302086Q545.78125 71.302086 545.2656 71.927086Q544.75 72.552086 544.75 73.75521ZM550.75 79.22396L550.625 78.239586Q550.96875 78.333336 551.2344 78.333336Q551.5781 78.333336 551.78125 78.208336Q552.0 78.09896 552.1406 77.895836Q552.2344 77.72396 552.46875 77.09896Q552.4844 77.020836 552.5625 76.84896L550.1875 70.614586L551.3281 70.614586L552.625 74.208336Q552.875 74.895836 553.0781 75.66146Q553.2656 74.927086 553.5156 74.239586L554.84375 70.614586L555.8906 70.614586L553.53125 76.94271Q553.1406 77.958336 552.9375 78.34896Q552.65625 78.88021 552.28125 79.114586Q551.9219 79.364586 551.4219 79.364586Q551.125 79.364586 550.75 79.22396ZM556.4844 79.364586L555.7344 79.364586Q557.4844 76.552086 557.4844 73.72396Q557.4844 72.63021 557.2344 71.53646Q557.03125 70.66146 556.6719 69.84896Q556.4375 69.333336 555.7344 68.09896L556.4844 68.09896Q557.5781 69.56771 558.1094 71.052086Q558.5625 72.333336 558.5625 73.72396Q558.5625 75.302086 557.9531 76.78646Q557.34375 78.25521 556.4844 79.364586Z" fill-rule="nonzero"/><path fill="#cc0000" d="M575.0 67.833336C575.0 67.28105 575.4477 66.833336 576.0 66.833336L586.0 66.833336C586.5523 66.833336 587.0 67.28105 587.0 67.833336L587.0 77.833336C587.0 78.38562 586.5523 78.833336 586.0 78.833336L576.0 78.833336C575.4477 78.833336 575.0 78.38562 575.0 77.833336Z" fill-rule="nonzero"/><path fill="#1a1a1a" d="M595.7969 76.833336L595.7969 70.614586L596.7344 70.614586L596.7344 71.489586Q597.03125 71.020836 597.5156 70.75521Q598.0 70.47396 598.625 70.47396Q599.3125 70.47396 599.75 70.75521Q600.2031 71.03646 600.375 71.552086Q601.125 70.47396 602.2969 70.47396Q603.2344 70.47396 603.71875 70.989586Q604.21875 71.489586 604.21875 72.56771L604.21875 76.833336L603.1719 76.833336L603.1719 72.91146Q603.1719 72.28646 603.0625 72.00521Q602.96875 71.72396 602.7031 71.552086Q602.4375 71.38021 602.0625 71.38021Q601.40625 71.38021 600.96875 71.81771Q600.5469 72.25521 600.5469 73.22396L600.5469 76.833336L599.4844 76.833336L599.4844 72.78646Q599.4844 72.083336 599.21875 71.739586Q598.96875 71.38021 598.3906 71.38021Q597.9375 71.38021 597.5625 71.614586Q597.1875 71.84896 597.0156 72.302086Q596.84375 72.75521 596.84375 73.59896L596.84375 76.833336L595.7969 76.833336ZM610.8594 76.06771Q610.2656 76.56771 609.71875 76.770836Q609.1875 76.97396 608.5625 76.97396Q607.53125 76.97396 606.9844 76.47396Q606.4375 75.97396 606.4375 75.19271Q606.4375 74.739586 606.6406 74.364586Q606.84375 73.97396 607.1875 73.75521Q607.53125 73.520836 607.9531 73.41146Q608.25 73.31771 608.8906 73.239586Q610.15625 73.09896 610.7656 72.88021Q610.7656 72.66146 610.7656 72.614586Q610.7656 71.958336 610.46875 71.69271Q610.0625 71.34896 609.2656 71.34896Q608.53125 71.34896 608.1719 71.614586Q607.8125 71.864586 607.6406 72.520836L606.6094 72.38021Q606.75 71.72396 607.0781 71.31771Q607.40625 70.91146 608.0156 70.69271Q608.625 70.47396 609.4219 70.47396Q610.21875 70.47396 610.71875 70.66146Q611.21875 70.84896 611.4531 71.13021Q611.6875 71.41146 611.78125 71.84896Q611.8281 72.114586 611.8281 72.81771L611.8281 74.22396Q611.8281 75.69271 611.8906 76.083336Q611.96875 76.47396 612.1719 76.833336L611.0625 76.833336Q610.90625 76.50521 610.8594 76.06771ZM610.7656 73.708336Q610.1875 73.94271 609.0469 74.114586Q608.3906 74.208336 608.125 74.333336Q607.8594 74.44271 607.7031 74.66146Q607.5625 74.88021 607.5625 75.16146Q607.5625 75.583336 607.875 75.864586Q608.2031 76.145836 608.8125 76.145836Q609.4219 76.145836 609.8906 75.88021Q610.375 75.614586 610.59375 75.145836Q610.7656 74.78646 610.7656 74.09896L610.7656 73.708336ZM613.7969 76.833336L613.7969 70.614586L614.7344 70.614586L614.7344 71.489586Q615.4219 70.47396 616.71875 70.47396Q617.28125 70.47396 617.75 70.677086Q618.2344 70.88021 618.46875 71.208336Q618.7031 71.53646 618.7969 71.97396Q618.84375 72.270836 618.84375 73.00521L618.84375 76.833336L617.7969 76.833336L617.7969 73.052086Q617.7969 72.395836 617.6719 72.083336Q617.5469 71.770836 617.2344 71.583336Q616.9219 71.38021 616.5 71.38021Q615.8281 71.38021 615.3281 71.81771Q614.84375 72.239586 614.84375 73.427086L614.84375 76.833336L613.7969 76.833336ZM620.75 79.22396L620.625 78.239586Q620.96875 78.333336 621.2344 78.333336Q621.5781 78.333336 621.78125 78.208336Q622.0 78.09896 622.1406 77.895836Q622.2344 77.72396 622.46875 77.09896Q622.4844 77.020836 622.5625 76.84896L620.1875 70.614586L621.3281 70.614586L622.625 74.208336Q622.875 74.895836 623.0781 75.66146Q623.2656 74.927086 623.5156 74.239586L624.84375 70.614586L625.8906 70.614586L623.53125 76.94271Q623.1406 77.958336 622.9375 78.34896Q622.65625 78.88021 622.28125 79.114586Q621.9219 79.364586 621.4219 79.364586Q621.125 79.364586 620.75 79.22396ZM629.0469 76.833336L629.0469 71.427086L628.1094 71.427086L628.1094 70.614586L629.0469 70.614586L629.0469 69.94271Q629.0469 69.31771 629.15625 69.020836Q629.3125 68.59896 629.6875 68.34896Q630.0781 68.09896 630.7656 68.09896Q631.21875 68.09896 631.75 68.208336L631.59375 69.114586Q631.2656 69.06771 630.96875 69.06771Q630.4844 69.06771 630.28125 69.270836Q630.09375 69.47396 630.09375 70.03646L630.09375 70.614586L631.3125 70.614586L631.3125 71.427086L630.09375 71.427086L630.09375 76.833336L629.0469 76.833336ZM631.7969 69.458336L631.7969 68.239586L632.8594 68.239586L632.8594 69.458336L631.7969 69.458336ZM631.7969 76.833336L631.7969 70.614586L632.8594 70.614586L632.8594 76.833336L631.7969 76.833336ZM634.7656 76.833336L634.7656 68.239586L635.8281 68.239586L635.8281 76.833336L634.7656 76.833336ZM642.0469 74.833336L643.1406 74.958336Q642.8906 75.91146 642.1875 76.44271Q641.4844 76.97396 640.40625 76.97396Q639.0469 76.97396 638.2344 76.13021Q637.4375 75.28646 637.4375 73.770836Q637.4375 72.208336 638.25 71.34896Q639.0625 70.47396 640.34375 70.47396Q641.59375 70.47396 642.375 71.31771Q643.1719 72.16146 643.1719 73.708336Q643.1719 73.802086 643.1719 73.989586L638.53125 73.989586Q638.59375 75.020836 639.1094 75.56771Q639.625 76.09896 640.40625 76.09896Q640.9844 76.09896 641.3906 75.802086Q641.8125 75.489586 642.0469 74.833336ZM638.59375 73.13021L642.0625 73.13021Q642.0 72.333336 641.6719 71.94271Q641.15625 71.333336 640.3594 71.333336Q639.625 71.333336 639.125 71.81771Q638.6406 72.302086 638.59375 73.13021ZM649.8125 79.364586Q648.9375 78.25521 648.3281 76.78646Q647.7344 75.302086 647.7344 73.72396Q647.7344 72.333336 648.1719 71.052086Q648.7031 69.56771 649.8125 68.09896L650.5625 68.09896Q649.8594 69.31771 649.625 69.833336Q649.2656 70.645836 649.0625 71.520836Q648.8125 72.614586 648.8125 73.72396Q648.8125 76.552086 650.5625 79.364586L649.8125 79.364586ZM651.59375 77.34896L652.625 77.50521Q652.6875 77.97396 652.9844 78.19271Q653.375 78.489586 654.0469 78.489586Q654.78125 78.489586 655.1719 78.19271Q655.5781 77.895836 655.71875 77.38021Q655.8125 77.052086 655.7969 76.020836Q655.1094 76.833336 654.0781 76.833336Q652.7969 76.833336 652.09375 75.91146Q651.3906 74.97396 651.3906 73.69271Q651.3906 72.802086 651.7031 72.052086Q652.03125 71.28646 652.6406 70.88021Q653.25 70.47396 654.0781 70.47396Q655.1875 70.47396 655.90625 71.364586L655.90625 70.614586L656.875 70.614586L656.875 75.989586Q656.875 77.44271 656.5781 78.052086Q656.28125 78.66146 655.6406 79.00521Q655.0 79.364586 654.0625 79.364586Q652.9531 79.364586 652.2656 78.864586Q651.5781 78.364586 651.59375 77.34896ZM652.46875 73.614586Q652.46875 74.833336 652.9531 75.395836Q653.4375 75.958336 654.1719 75.958336Q654.90625 75.958336 655.3906 75.395836Q655.8906 74.833336 655.8906 73.645836Q655.8906 72.50521 655.375 71.927086Q654.875 71.34896 654.15625 71.34896Q653.4531 71.34896 652.9531 71.927086Q652.46875 72.489586 652.46875 73.614586ZM663.0469 74.833336L664.1406 74.958336Q663.8906 75.91146 663.1875 76.44271Q662.4844 76.97396 661.40625 76.97396Q660.0469 76.97396 659.2344 76.13021Q658.4375 75.28646 658.4375 73.770836Q658.4375 72.208336 659.25 71.34896Q660.0625 70.47396 661.34375 70.47396Q662.59375 70.47396 663.375 71.31771Q664.1719 72.16146 664.1719 73.708336Q664.1719 73.802086 664.1719 73.989586L659.53125 73.989586Q659.59375 75.020836 660.1094 75.56771Q660.625 76.09896 661.40625 76.09896Q661.9844 76.09896 662.3906 75.802086Q662.8125 75.489586 663.0469 74.833336ZM659.59375 73.13021L663.0625 73.13021Q663.0 72.333336 662.6719 71.94271Q662.15625 71.333336 661.3594 71.333336Q660.625 71.333336 660.125 71.81771Q659.6406 72.302086 659.59375 73.13021ZM668.09375 75.895836L668.25 76.81771Q667.7969 76.91146 667.4531 76.91146Q666.875 76.91146 666.5625 76.739586Q666.25 76.552086 666.1094 76.25521Q665.9844 75.958336 665.9844 75.00521L665.9844 71.427086L665.21875 71.427086L665.21875 70.614586L665.9844 70.614586L665.9844 69.06771L667.03125 68.44271L667.03125 70.614586L668.09375 70.614586L668.09375 71.427086L667.03125 71.427086L667.03125 75.06771Q667.03125 75.520836 667.0781 75.645836Q667.1406 75.770836 667.2656 75.84896Q667.3906 75.927086 667.625 75.927086Q667.8125 75.927086 668.09375 75.895836ZM667.9844 76.833336L671.28125 68.239586L672.5 68.239586L676.0156 76.833336L674.7344 76.833336L673.71875 74.22396L670.1406 74.22396L669.1875 76.833336L667.9844 76.833336ZM670.46875 73.302086L673.375 73.302086L672.4844 70.927086Q672.0625 69.84896 671.875 69.145836Q671.7031 69.97396 671.40625 70.78646L670.46875 73.302086ZM678.375 76.833336L675.0469 68.239586L676.28125 68.239586L678.5156 74.489586Q678.78125 75.239586 678.96875 75.895836Q679.1719 75.19271 679.4375 74.489586L681.75 68.239586L682.90625 68.239586L679.5469 76.833336L678.375 76.833336ZM686.9531 73.458336L686.9531 72.458336L690.5781 72.44271L690.5781 75.63021Q689.75 76.302086 688.8594 76.645836Q687.96875 76.97396 687.03125 76.97396Q685.7656 76.97396 684.71875 76.44271Q683.6875 75.895836 683.15625 74.88021Q682.6406 73.84896 682.6406 72.583336Q682.6406 71.31771 683.15625 70.239586Q683.6875 69.145836 684.6719 68.63021Q685.65625 68.09896 686.9375 68.09896Q687.875 68.09896 688.625 68.395836Q689.375 68.69271 689.7969 69.239586Q690.2344 69.770836 690.4531 70.645836L689.4375 70.927086Q689.2344 70.270836 688.9375 69.895836Q688.65625 69.520836 688.125 69.302086Q687.59375 69.06771 686.9531 69.06771Q686.1719 69.06771 685.59375 69.302086Q685.03125 69.53646 684.6719 69.927086Q684.3281 70.31771 684.1406 70.78646Q683.8125 71.583336 683.8125 72.50521Q683.8125 73.66146 684.2031 74.44271Q684.6094 75.208336 685.3594 75.583336Q686.1094 75.958336 686.96875 75.958336Q687.7031 75.958336 688.40625 75.677086Q689.1094 75.38021 689.46875 75.06771L689.46875 73.458336L686.9531 73.458336ZM691.375 74.97396L692.40625 74.81771Q692.5 75.44271 692.8906 75.770836Q693.2969 76.09896 694.03125 76.09896Q694.75 76.09896 695.09375 75.81771Q695.4531 75.520836 695.4531 75.114586Q695.4531 74.75521 695.1406 74.552086Q694.9219 74.41146 694.0625 74.19271Q692.90625 73.895836 692.4531 73.69271Q692.0156 73.47396 691.78125 73.09896Q691.5469 72.72396 691.5469 72.25521Q691.5469 71.84896 691.7344 71.489586Q691.9219 71.13021 692.25 70.895836Q692.5 70.72396 692.9219 70.59896Q693.34375 70.47396 693.84375 70.47396Q694.5625 70.47396 695.1094 70.69271Q695.6719 70.895836 695.9375 71.25521Q696.2031 71.614586 696.2969 72.208336L695.2656 72.34896Q695.2031 71.88021 694.8594 71.614586Q694.53125 71.333336 693.90625 71.333336Q693.1875 71.333336 692.875 71.583336Q692.5625 71.81771 692.5625 72.145836Q692.5625 72.34896 692.6875 72.50521Q692.8281 72.677086 693.09375 72.78646Q693.25 72.84896 694.03125 73.052086Q695.15625 73.364586 695.59375 73.552086Q696.03125 73.739586 696.28125 74.09896Q696.53125 74.458336 696.53125 75.00521Q696.53125 75.53646 696.21875 76.00521Q695.9219 76.458336 695.34375 76.72396Q694.7656 76.97396 694.03125 76.97396Q692.8125 76.97396 692.1719 76.47396Q691.5469 75.958336 691.375 74.97396ZM699.09375 76.833336L699.09375 75.63021L700.2969 75.63021L700.2969 76.833336L699.09375 76.833336ZM701.7969 79.22396L701.7969 70.614586L702.75 70.614586L702.75 71.41146Q703.09375 70.94271 703.5156 70.708336Q703.9531 70.47396 704.5625 70.47396Q705.3594 70.47396 705.96875 70.88021Q706.5781 71.28646 706.875 72.03646Q707.1875 72.78646 707.1875 73.677086Q707.1875 74.63021 706.84375 75.395836Q706.5156 76.16146 705.8594 76.56771Q705.2031 76.97396 704.4844 76.97396Q703.9531 76.97396 703.53125 76.75521Q703.1094 76.520836 702.84375 76.19271L702.84375 79.22396L701.7969 79.22396ZM702.75 73.75521Q702.75 74.958336 703.2344 75.53646Q703.71875 76.09896 704.40625 76.09896Q705.1094 76.09896 705.6094 75.50521Q706.1094 74.91146 706.1094 73.66146Q706.1094 72.47396 705.625 71.895836Q705.1406 71.302086 704.4531 71.302086Q703.78125 71.302086 703.2656 71.927086Q702.75 72.552086 702.75 73.75521ZM708.75 79.22396L708.625 78.239586Q708.96875 78.333336 709.2344 78.333336Q709.5781 78.333336 709.78125 78.208336Q710.0 78.09896 710.1406 77.895836Q710.2344 77.72396 710.46875 77.09896Q710.4844 77.020836 710.5625 76.84896L708.1875 70.614586L709.3281 70.614586L710.625 74.208336Q710.875 74.895836 711.0781 75.66146Q711.2656 74.927086 711.5156 74.239586L712.84375 70.614586L713.8906 70.614586L711.53125 76.94271Q711.1406 77.958336 710.9375 78.34896Q710.65625 78.88021 710.28125 79.114586Q709.9219 79.364586 709.4219 79.364586Q709.125 79.364586 708.75 79.22396ZM714.4844 79.364586L713.7344 79.364586Q715.4844 76.552086 715.4844 73.72396Q715.4844 72.63021 715.2344 71.53646Q715.03125 70.66146 714.6719 69.84896Q714.4375 69.333336 713.7344 68.09896L714.4844 68.09896Q715.5781 69.56771 716.1094 71.052086Q716.5625 72.333336 716.5625 73.72396Q716.5625 75.302086 715.9531 76.78646Q715.34375 78.25521 714.4844 79.364586Z" fill-rule="nonzero"/><path fill="#000000" d="M26.553125 29.787498L31.834375 29.787498Q33.615623 29.787498 34.553123 30.053123Q35.81875 30.428123 36.709373 31.381248Q37.615623 32.31875 38.084373 33.69375Q38.553123 35.06875 38.553123 37.084373Q38.553123 38.85 38.115623 40.13125Q37.56875 41.69375 36.56875 42.646873Q35.81875 43.38125 34.5375 43.803123Q33.584373 44.1 31.990625 44.1L26.553125 44.1L26.553125 29.787498ZM29.44375 32.209373L29.44375 41.69375L31.6 41.69375Q32.803123 41.69375 33.35 41.553123Q34.053123 41.38125 34.50625 40.959373Q34.975 40.5375 35.25625 39.584373Q35.553123 38.615623 35.553123 36.94375Q35.553123 35.2875 35.25625 34.396873Q34.975 33.50625 34.44375 33.021873Q33.9125 32.521873 33.115623 32.334373Q32.50625 32.209373 30.740625 32.209373L29.44375 32.209373ZM39.240623 33.725L42.1625 33.725L44.63125 41.084373L47.053123 33.725L49.896873 33.725L46.240623 43.709373L45.584373 45.521873Q45.225 46.428123 44.896873 46.896873Q44.56875 47.38125 44.146873 47.678123Q43.725 47.975 43.1 48.13125Q42.475 48.303123 41.69375 48.303123Q40.9125 48.303123 40.146873 48.146873L39.896873 45.990623Q40.553123 46.115623 41.06875 46.115623Q42.021873 46.115623 42.475 45.553123Q42.94375 45.00625 43.178123 44.13125L39.240623 33.725ZM60.975 44.1L58.225 44.1L58.225 38.803123Q58.225 37.13125 58.053123 36.646873Q57.88125 36.146873 57.475 35.88125Q57.084373 35.6 56.521873 35.6Q55.81875 35.6 55.240623 35.990623Q54.678123 36.38125 54.459373 37.021873Q54.25625 37.6625 54.25625 39.396873L54.25625 44.1L51.521873 44.1L51.521873 33.725L54.06875 33.725L54.06875 35.25625Q55.428123 33.490623 57.490623 33.490623Q58.396873 33.490623 59.146873 33.81875Q59.896873 34.146873 60.271873 34.6625Q60.6625 35.1625 60.81875 35.81875Q60.975 36.459373 60.975 37.646873L60.975 44.1ZM65.58437 36.896873L63.1 36.44375Q63.521873 34.94375 64.5375 34.225Q65.56875 33.490623 67.58437 33.490623Q69.42812 33.490623 70.31875 33.928123Q71.225 34.365623 71.58437 35.0375Q71.95937 35.69375 71.95937 37.490623L71.92812 40.69375Q71.92812 42.053123 72.05312 42.709373Q72.19375 43.35 72.55312 44.1L69.83437 44.1Q69.725 43.81875 69.56875 43.2875Q69.50625 43.0375 69.475 42.959373Q68.77187 43.646873 67.95937 43.990623Q67.1625 44.334373 66.25625 44.334373Q64.6625 44.334373 63.740623 43.475Q62.81875 42.6 62.81875 41.271873Q62.81875 40.38125 63.225 39.69375Q63.646873 39.00625 64.39687 38.646873Q65.1625 38.271873 66.6 38.00625Q68.52187 37.646873 69.25625 37.334373L69.25625 37.053123Q69.25625 36.271873 68.86562 35.94375Q68.475 35.6 67.39687 35.6Q66.6625 35.6 66.24062 35.88125Q65.83437 36.1625 65.58437 36.896873ZM69.25625 39.115623Q68.725 39.2875 67.58437 39.5375Q66.44375 39.7875 66.1 40.021873Q65.55312 40.396873 65.55312 40.990623Q65.55312 41.553123 65.975 41.975Q66.4125 42.396873 67.08437 42.396873Q67.81875 42.396873 68.49062 41.9125Q68.99062 41.5375 69.14687 41.00625Q69.25625 40.646873 69.25625 39.6625L69.25625 39.115623ZM74.33437 33.725L76.86562 33.725L76.86562 35.146873Q78.225 33.490623 80.1 33.490623Q81.08437 33.490623 81.81875 33.9125Q82.55312 34.31875 83.02187 35.146873Q83.70937 34.31875 84.49062 33.9125Q85.2875 33.490623 86.19375 33.490623Q87.33437 33.490623 88.11562 33.959373Q88.9125 34.428123 89.30312 35.31875Q89.58437 35.990623 89.58437 37.475L89.58437 44.1L86.83437 44.1L86.83437 38.178123Q86.83437 36.63125 86.55312 36.178123Q86.17812 35.6 85.38125 35.6Q84.80312 35.6 84.2875 35.959373Q83.7875 36.303123 83.56875 36.975Q83.35 37.646873 83.35 39.115623L83.35 44.1L80.6 44.1L80.6 38.4125Q80.6 36.896873 80.44375 36.459373Q80.30312 36.021873 79.99062 35.81875Q79.69375 35.6 79.1625 35.6Q78.5375 35.6 78.02187 35.94375Q77.52187 36.271873 77.2875 36.928123Q77.06875 37.56875 77.06875 39.053123L77.06875 44.1L74.33437 44.1L74.33437 33.725ZM91.5375 32.31875L91.5375 29.787498L94.2875 29.787498L94.2875 32.31875L91.5375 32.31875ZM91.5375 44.1L91.5375 33.725L94.2875 33.725L94.2875 44.1L91.5375 44.1ZM105.58437 36.7875L102.88125 37.2875Q102.74062 36.475 102.25625 36.06875Q101.77187 35.646873 101.00625 35.646873Q99.975 35.646873 99.36562 36.365623Q98.75625 37.06875 98.75625 38.725Q98.75625 40.56875 99.36562 41.334373Q99.99062 42.1 101.0375 42.1Q101.81875 42.1 102.31875 41.6625Q102.81875 41.209373 103.02187 40.13125L105.70937 40.584373Q105.30312 42.44375 104.1 43.396873Q102.9125 44.334373 100.9125 44.334373Q98.63125 44.334373 97.27187 42.896873Q95.92812 41.459373 95.92812 38.928123Q95.92812 36.35 97.2875 34.928123Q98.64687 33.490623 100.95937 33.490623Q102.85 33.490623 103.95937 34.31875Q105.08437 35.13125 105.58437 36.7875ZM112.33437 33.725L113.86562 33.725L113.86562 32.94375Q113.86562 31.631248 114.13125 30.990623Q114.4125 30.349998 115.1625 29.943748Q115.9125 29.537498 117.05312 29.537498Q118.225 29.537498 119.35 29.896873L118.975 31.803123Q118.31875 31.646873 117.70937 31.646873Q117.11562 31.646873 116.85 31.928123Q116.6 32.209373 116.6 32.990623L116.6 33.725L118.64687 33.725L118.64687 35.88125L116.6 35.88125L116.6 44.1L113.86562 44.1L113.86562 35.88125L112.33437 35.88125L112.33437 33.725ZM120.5375 32.31875L120.5375 29.787498L123.2875 29.787498L123.2875 32.31875L120.5375 32.31875ZM120.5375 44.1L120.5375 33.725L123.2875 33.725L123.2875 44.1L120.5375 44.1ZM125.5375 44.1L125.5375 29.787498L128.2875 29.787498L128.2875 44.1L125.5375 44.1ZM136.5375 40.803123L139.27188 41.25625Q138.75626 42.75625 137.61563 43.553123Q136.475 44.334373 134.77188 44.334373Q132.05313 44.334373 130.75626 42.56875Q129.74063 41.146873 129.74063 38.990623Q129.74063 36.4125 131.08438 34.959373Q132.42813 33.490623 134.49063 33.490623Q136.80313 33.490623 138.13126 35.021873Q139.475 36.553123 139.42813 39.709373L132.55313 39.709373Q132.58438 40.928123 133.20938 41.615623Q133.85 42.2875 134.7875 42.2875Q135.44376 42.2875 135.88126 41.94375Q136.31876 41.584373 136.5375 40.803123ZM136.69376 38.021873Q136.6625 36.834373 136.06876 36.225Q135.49063 35.6 134.6625 35.6Q133.75626 35.6 133.17813 36.240623Q132.58438 36.896873 132.6 38.021873L136.69376 38.021873ZM140.56876 41.146873L143.31876 40.725Q143.50626 41.521873 144.0375 41.94375Q144.56876 42.35 145.5375 42.35Q146.6 42.35 147.14688 41.959373Q147.50626 41.69375 147.50626 41.225Q147.50626 40.9125 147.30313 40.709373Q147.1 40.521873 146.39688 40.35Q143.06876 39.615623 142.17813 39.00625Q140.94376 38.178123 140.94376 36.678123Q140.94376 35.334373 142.00626 34.4125Q143.08438 33.490623 145.31876 33.490623Q147.44376 33.490623 148.475 34.19375Q149.52188 34.88125 149.9125 36.240623L147.31876 36.709373Q147.14688 36.115623 146.67813 35.7875Q146.225 35.459373 145.36563 35.459373Q144.2875 35.459373 143.81876 35.771873Q143.50626 35.990623 143.50626 36.31875Q143.50626 36.615623 143.77188 36.81875Q144.14688 37.1 146.33438 37.6Q148.52188 38.1 149.39688 38.81875Q150.25626 39.553123 150.25626 40.85Q150.25626 42.2875 149.06876 43.31875Q147.88126 44.334373 145.5375 44.334373Q143.42813 44.334373 142.17813 43.475Q140.94376 42.615623 140.56876 41.146873Z" fill-rule="nonzero"/></svg>