<svg version="1.1" viewBox="0.0 0.0 600.0 371.0" fill="none" stroke="none" stroke-linecap="square" stroke-miterlimit="10" width="600" height="371" xmlns:xlink="http://www.w3.org/1999/xlink" xmlns="http://www.w3.org/2000/svg"><path fill="#ffffff" d="M0 0L600.0 0L600.0 371.0L0 371.0L0 0Z" fill-rule="nonzero"/><path stroke="#333333" stroke-width="1.0" stroke-linecap="butt" d="M45.5 332.5L581.5 332.5" fill-rule="nonzero"/><path stroke="#cccccc" stroke-width="1.0" stroke-linecap="butt" d="M45.5 271.5L581.5 271.5" fill-rule="nonzero"/><path stroke="#cccccc" stroke-width="1.0" stroke-linecap="butt" d="M45.5 210.5L581.5 210.5" fill-rule="nonzero"/><path stroke="#cccccc" stroke-width="1.0" stroke-linecap="butt" d="M45.5 149.5L581.5 149.5" fill-rule="nonzero"/><path stroke="#cccccc" stroke-width="1.0" stroke-linecap="butt" d="M45.5 88.5L581.5 88.5" fill-rule="nonzero"/><path stroke="#eeeeee" stroke-width="1.0" stroke-linecap="butt" d="M179.525 279.825L179.525 295.825" fill-rule="nonzero"/><path stroke="#eeeeee" stroke-width="1.0" stroke-linecap="butt" d="M447.475 212.67917L447.475 228.67917" fill-rule="nonzero"/><path stroke="#eeeeee" stroke-width="1.0" stroke-linecap="butt" d="M179.525 230.99167L179.525 246.99167" fill-rule="nonzero"/><clipPath id="id_0"><path d="M45.55 88.28333L581.45 88.28333L581.45 332.45L45.55 332.45L45.55 88.28333Z" clip-rule="nonzero"/></clipPath><path stroke="#4285f4" stroke-width="2.0" stroke-linecap="butt" clip-path="url(#id_0)" d="M179.525 295.825L447.475 228.67917" fill-rule="nonzero"/><path stroke="#ea4335" stroke-width="2.0" stroke-linecap="butt" clip-path="url(#id_0)" d="M179.525 246.99167L447.475 115.75208" fill-rule="nonzero"/><path fill="#4285f4" clip-path="url(#id_0)" d="M185.525 295.825C185.525 299.1387 182.83871 301.825 179.525 301.825C176.21129 301.825 173.525 299.1387 173.525 295.825C173.525 292.5113 176.21129 289.825 179.525 289.825C182.83871 289.825 185.525 292.5113 185.525 295.825Z" fill-rule="nonzero"/><path fill="#4285f4" clip-path="url(#id_0)" d="M453.475 228.67917C453.475 231.99287 450.7887 234.67917 447.475 234.67917C444.1613 234.67917 441.475 231.99287 441.475 228.67917C441.475 225.36546 444.1613 222.67917 447.475 222.67917C450.7887 222.67917 453.475 225.36546 453.475 228.67917Z" fill-rule="nonzero"/><path fill="#ea4335" clip-path="url(#id_0)" d="M185.525 246.99167C185.525 250.30537 182.83871 252.99167 179.525 252.99167C176.21129 252.99167 173.525 250.30537 173.525 246.99167C173.525 243.67796 176.21129 240.99167 179.525 240.99167C182.83871 240.99167 185.525 243.67796 185.525 246.99167Z" fill-rule="nonzero"/><path fill="#ea4335" clip-path="url(#id_0)" d="M453.475 115.75208C453.475 119.06579 450.7887 121.75208 447.475 121.75208C444.1613 121.75208 441.475 119.06579 441.475 115.75208C441.475 112.43838 444.1613 109.75208 447.475 109.75208C450.7887 109.75208 453.475 112.43838 453.475 115.75208Z" fill-rule="nonzero"/><path stroke="#ffffff" stroke-width="3.0" stroke-linejoin="round" stroke-linecap="round" d="M176.79062 277.825L175.7125 277.825L175.7125 270.60626L173.525 271.40314L173.525 270.41876L176.63437 269.2469L176.79062 269.2469L176.79062 277.825ZM185.82187 277.825L180.22812 277.825L180.22812 277.04376L183.18124 273.7625Q183.8375 273.0125 184.0875 272.5594Q184.3375 272.09064 184.3375 271.59064Q184.3375 270.91876 183.93124 270.4969Q183.54062 270.0594 182.85312 270.0594Q182.05624 270.0594 181.60312 270.52814Q181.15 270.98126 181.15 271.8094L180.07187 271.8094Q180.07187 270.6219 180.82187 269.90314Q181.5875 269.16876 182.85312 269.16876Q184.05624 269.16876 184.74374 269.79376Q185.43124 270.41876 185.43124 271.46564Q185.43124 272.71564 183.82187 274.46564L181.54062 276.9344L185.82187 276.9344L185.82187 277.825Z" fill-rule="nonzero"/><path fill="#4285f4" d="M176.79062 277.825L175.7125 277.825L175.7125 270.60626L173.525 271.40314L173.525 270.41876L176.63437 269.2469L176.79062 269.2469L176.79062 277.825ZM185.82187 277.825L180.22812 277.825L180.22812 277.04376L183.18124 273.7625Q183.8375 273.0125 184.0875 272.5594Q184.3375 272.09064 184.3375 271.59064Q184.3375 270.91876 183.93124 270.4969Q183.54062 270.0594 182.85312 270.0594Q182.05624 270.0594 181.60312 270.52814Q181.15 270.98126 181.15 271.8094L180.07187 271.8094Q180.07187 270.6219 180.82187 269.90314Q181.5875 269.16876 182.85312 269.16876Q184.05624 269.16876 184.74374 269.79376Q185.43124 270.41876 185.43124 271.46564Q185.43124 272.71564 183.82187 274.46564L181.54062 276.9344L185.82187 276.9344L185.82187 277.825Z" fill-rule="nonzero"/><path stroke="#ffffff" stroke-width="3.0" stroke-linejoin="round" stroke-linecap="round" d="M442.75626 205.8823L443.56876 205.8823Q444.35 205.86667 444.7875 205.47604Q445.225 205.08542 445.225 204.41354Q445.225 202.91354 443.725 202.91354Q443.02188 202.91354 442.6 203.3198Q442.19376 203.72604 442.19376 204.3823L441.1 204.3823Q441.1 203.36667 441.83438 202.6948Q442.58438 202.02292 443.725 202.02292Q444.92813 202.02292 445.61563 202.66354Q446.30313 203.30417 446.30313 204.4448Q446.30313 205.0073 445.94376 205.52292Q445.58438 206.03854 444.95938 206.30417Q445.6625 206.52292 446.0375 207.03854Q446.42813 207.55417 446.42813 208.30417Q446.42813 209.4448 445.67813 210.1323Q444.92813 210.80417 443.725 210.80417Q442.5375 210.80417 441.77188 210.14792Q441.02188 209.49167 441.02188 208.42917L442.11563 208.42917Q442.11563 209.10104 442.55313 209.5073Q442.99063 209.91354 443.74063 209.91354Q444.52188 209.91354 444.92813 209.5073Q445.35 209.08542 445.35 208.3198Q445.35 207.58542 444.89688 207.1948Q444.44376 206.78854 443.56876 206.77292L442.75626 206.77292L442.75626 205.8823ZM452.75626 207.8198L453.94376 207.8198L453.94376 208.6948L452.75626 208.6948L452.75626 210.67917L451.67813 210.67917L451.67813 208.6948L447.7875 208.6948L447.7875 208.05417L451.6 202.14792L452.75626 202.14792L452.75626 207.8198ZM449.02188 207.8198L451.67813 207.8198L451.67813 203.6323L451.5375 203.86667L449.02188 207.8198Z" fill-rule="nonzero"/><path fill="#4285f4" d="M442.75626 205.8823L443.56876 205.8823Q444.35 205.86667 444.7875 205.47604Q445.225 205.08542 445.225 204.41354Q445.225 202.91354 443.725 202.91354Q443.02188 202.91354 442.6 203.3198Q442.19376 203.72604 442.19376 204.3823L441.1 204.3823Q441.1 203.36667 441.83438 202.6948Q442.58438 202.02292 443.725 202.02292Q444.92813 202.02292 445.61563 202.66354Q446.30313 203.30417 446.30313 204.4448Q446.30313 205.0073 445.94376 205.52292Q445.58438 206.03854 444.95938 206.30417Q445.6625 206.52292 446.0375 207.03854Q446.42813 207.55417 446.42813 208.30417Q446.42813 209.4448 445.67813 210.1323Q444.92813 210.80417 443.725 210.80417Q442.5375 210.80417 441.77188 210.14792Q441.02188 209.49167 441.02188 208.42917L442.11563 208.42917Q442.11563 209.10104 442.55313 209.5073Q442.99063 209.91354 443.74063 209.91354Q444.52188 209.91354 444.92813 209.5073Q445.35 209.08542 445.35 208.3198Q445.35 207.58542 444.89688 207.1948Q444.44376 206.78854 443.56876 206.77292L442.75626 206.77292L442.75626 205.8823ZM452.75626 207.8198L453.94376 207.8198L453.94376 208.6948L452.75626 208.6948L452.75626 210.67917L451.67813 210.67917L451.67813 208.6948L447.7875 208.6948L447.7875 208.05417L451.6 202.14792L452.75626 202.14792L452.75626 207.8198ZM449.02188 207.8198L451.67813 207.8198L451.67813 203.6323L451.5375 203.86667L449.02188 207.8198Z" fill-rule="nonzero"/><path stroke="#ffffff" stroke-width="3.0" stroke-linejoin="round" stroke-linecap="round" d="M178.82187 228.99167L173.22812 228.99167L173.22812 228.21042L176.18124 224.92917Q176.8375 224.17917 177.0875 223.72604Q177.3375 223.2573 177.3375 222.7573Q177.3375 222.08542 176.93124 221.66354Q176.54062 221.22604 175.85312 221.22604Q175.05624 221.22604 174.60312 221.6948Q174.15 222.14792 174.15 222.97604L173.07187 222.97604Q173.07187 221.78854 173.82187 221.0698Q174.5875 220.33542 175.85312 220.33542Q177.05624 220.33542 177.74374 220.96042Q178.43124 221.58542 178.43124 222.6323Q178.43124 223.8823 176.82187 225.6323L174.54062 228.10104L178.82187 228.10104L178.82187 228.99167ZM185.41562 222.67917Q185.41562 223.3198 185.07187 223.8198Q184.72812 224.3198 184.16562 224.60104Q184.82187 224.8823 185.2125 225.4448Q185.60312 225.99167 185.60312 226.6948Q185.60312 227.78854 184.85312 228.46042Q184.11874 229.11667 182.9 229.11667Q181.66562 229.11667 180.91562 228.46042Q180.18124 227.78854 180.18124 226.6948Q180.18124 225.99167 180.55624 225.4448Q180.93124 224.8823 181.60312 224.60104Q181.04062 224.3198 180.7125 223.8198Q180.38437 223.3198 180.38437 222.67917Q180.38437 221.60104 181.07187 220.97604Q181.75937 220.33542 182.9 220.33542Q184.025 220.33542 184.7125 220.97604Q185.41562 221.60104 185.41562 222.67917ZM184.525 226.66354Q184.525 225.9448 184.07187 225.5073Q183.61874 225.05417 182.88437 225.05417Q182.15 225.05417 181.69687 225.5073Q181.25937 225.9448 181.25937 226.67917Q181.25937 227.39792 181.69687 227.8198Q182.13437 228.22604 182.9 228.22604Q183.65 228.22604 184.0875 227.80417Q184.525 227.3823 184.525 226.66354ZM182.9 221.22604Q182.25937 221.22604 181.85312 221.6323Q181.4625 222.02292 181.4625 222.71042Q181.4625 223.35104 181.85312 223.7573Q182.24374 224.16354 182.88437 224.16354Q183.54062 224.16354 183.93124 223.7573Q184.32187 223.35104 184.32187 222.71042Q184.32187 222.05417 183.91562 221.64792Q183.50937 221.22604 182.9 221.22604Z" fill-rule="nonzero"/><path fill="#ea4335" d="M178.82187 228.99167L173.22812 228.99167L173.22812 228.21042L176.18124 224.92917Q176.8375 224.17917 177.0875 223.72604Q177.3375 223.2573 177.3375 222.7573Q177.3375 222.08542 176.93124 221.66354Q176.54062 221.22604 175.85312 221.22604Q175.05624 221.22604 174.60312 221.6948Q174.15 222.14792 174.15 222.97604L173.07187 222.97604Q173.07187 221.78854 173.82187 221.0698Q174.5875 220.33542 175.85312 220.33542Q177.05624 220.33542 177.74374 220.96042Q178.43124 221.58542 178.43124 222.6323Q178.43124 223.8823 176.82187 225.6323L174.54062 228.10104L178.82187 228.10104L178.82187 228.99167ZM185.41562 222.67917Q185.41562 223.3198 185.07187 223.8198Q184.72812 224.3198 184.16562 224.60104Q184.82187 224.8823 185.2125 225.4448Q185.60312 225.99167 185.60312 226.6948Q185.60312 227.78854 184.85312 228.46042Q184.11874 229.11667 182.9 229.11667Q181.66562 229.11667 180.91562 228.46042Q180.18124 227.78854 180.18124 226.6948Q180.18124 225.99167 180.55624 225.4448Q180.93124 224.8823 181.60312 224.60104Q181.04062 224.3198 180.7125 223.8198Q180.38437 223.3198 180.38437 222.67917Q180.38437 221.60104 181.07187 220.97604Q181.75937 220.33542 182.9 220.33542Q184.025 220.33542 184.7125 220.97604Q185.41562 221.60104 185.41562 222.67917ZM184.525 226.66354Q184.525 225.9448 184.07187 225.5073Q183.61874 225.05417 182.88437 225.05417Q182.15 225.05417 181.69687 225.5073Q181.25937 225.9448 181.25937 226.67917Q181.25937 227.39792 181.69687 227.8198Q182.13437 228.22604 182.9 228.22604Q183.65 228.22604 184.0875 227.80417Q184.525 227.3823 184.525 226.66354ZM182.9 221.22604Q182.25937 221.22604 181.85312 221.6323Q181.4625 222.02292 181.4625 222.71042Q181.4625 223.35104 181.85312 223.7573Q182.24374 224.16354 182.88437 224.16354Q183.54062 224.16354 183.93124 223.7573Q184.32187 223.35104 184.32187 222.71042Q184.32187 222.05417 183.91562 221.64792Q183.50937 221.22604 182.9 221.22604Z" fill-rule="nonzero"/><path fill="#000000" d="M33.05 332.21564Q33.05 330.6844 33.3625 329.7625Q33.675 328.825 34.284374 328.325Q34.909374 327.825 35.846874 327.825Q36.534374 327.825 37.05 328.10626Q37.58125 328.3875 37.925 328.91876Q38.26875 329.4344 38.45625 330.1844Q38.64375 330.9344 38.64375 332.21564Q38.64375 333.73126 38.33125 334.65314Q38.034374 335.575 37.409374 336.09064Q36.8 336.59064 35.846874 336.59064Q34.6125 336.59064 33.89375 335.7Q33.05 334.6375 33.05 332.21564ZM34.128124 332.21564Q34.128124 334.325 34.628124 335.02814Q35.128124 335.73126 35.846874 335.73126Q36.58125 335.73126 37.065624 335.02814Q37.565624 334.325 37.565624 332.21564Q37.565624 330.09064 37.065624 329.40314Q36.58125 328.7 35.83125 328.7Q35.1125 328.7 34.675 329.3094Q34.128124 330.09064 34.128124 332.21564Z" fill-rule="nonzero"/><path fill="#000000" d="M31.596874 274.3927L31.596874 275.40833L25.909374 275.40833Q25.909374 275.03333 26.034374 274.67395Q26.253124 274.09583 26.721874 273.53333Q27.20625 272.97083 28.1125 272.23645Q29.51875 271.0802 30.003124 270.40833Q30.503124 269.73645 30.503124 269.1427Q30.503124 268.5177 30.05 268.09583Q29.596874 267.65833 28.878124 267.65833Q28.1125 267.65833 27.659374 268.11145Q27.20625 268.56458 27.190624 269.37708L26.1125 269.2677Q26.221874 268.04895 26.940624 267.42395Q27.675 266.78333 28.909374 266.78333Q30.14375 266.78333 30.8625 267.47083Q31.58125 268.15833 31.58125 269.17395Q31.58125 269.68958 31.3625 270.18958Q31.159374 270.67395 30.659374 271.23645Q30.175 271.78333 29.05 272.73645Q28.096874 273.53333 27.815624 273.8302Q27.55 274.11145 27.378124 274.3927L31.596874 274.3927ZM33.05 271.17395Q33.05 269.6427 33.3625 268.72083Q33.675 267.78333 34.284374 267.28333Q34.909374 266.78333 35.846874 266.78333Q36.534374 266.78333 37.05 267.06458Q37.58125 267.34583 37.925 267.87708Q38.26875 268.3927 38.45625 269.1427Q38.64375 269.8927 38.64375 271.17395Q38.64375 272.68958 38.33125 273.61145Q38.034374 274.53333 37.409374 275.04895Q36.8 275.54895 35.846874 275.54895Q34.6125 275.54895 33.89375 274.65833Q33.05 273.59583 33.05 271.17395ZM34.128124 271.17395Q34.128124 273.28333 34.628124 273.98645Q35.128124 274.68958 35.846874 274.68958Q36.58125 274.68958 37.065624 273.98645Q37.565624 273.28333 37.565624 271.17395Q37.565624 269.04895 37.065624 268.36145Q36.58125 267.65833 35.83125 267.65833Q35.1125 267.65833 34.675 268.2677Q34.128124 269.04895 34.128124 271.17395Z" fill-rule="nonzero"/><path fill="#000000" d="M29.425 214.36667L29.425 212.30417L25.70625 212.30417L25.70625 211.33542L29.628124 205.77292L30.4875 205.77292L30.4875 211.33542L31.64375 211.33542L31.64375 212.30417L30.4875 212.30417L30.4875 214.36667L29.425 214.36667ZM29.425 211.33542L29.425 207.47604L26.7375 211.33542L29.425 211.33542ZM33.05 210.1323Q33.05 208.60104 33.3625 207.67917Q33.675 206.74167 34.284374 206.24167Q34.909374 205.74167 35.846874 205.74167Q36.534374 205.74167 37.05 206.02292Q37.58125 206.30417 37.925 206.83542Q38.26875 207.35104 38.45625 208.10104Q38.64375 208.85104 38.64375 210.1323Q38.64375 211.64792 38.33125 212.5698Q38.034374 213.49167 37.409374 214.0073Q36.8 214.5073 35.846874 214.5073Q34.6125 214.5073 33.89375 213.61667Q33.05 212.55417 33.05 210.1323ZM34.128124 210.1323Q34.128124 212.24167 34.628124 212.9448Q35.128124 213.64792 35.846874 213.64792Q36.58125 213.64792 37.065624 212.9448Q37.565624 212.24167 37.565624 210.1323Q37.565624 208.0073 37.065624 207.3198Q36.58125 206.61667 35.83125 206.61667Q35.1125 206.61667 34.675 207.22604Q34.128124 208.0073 34.128124 210.1323Z" fill-rule="nonzero"/><path fill="#000000" d="M31.51875 146.84062L30.471874 146.91875Q30.33125 146.29375 30.08125 146.0125Q29.64375 145.55937 29.01875 145.55937Q28.51875 145.55937 28.128124 145.84062Q27.64375 146.21562 27.346874 146.91875Q27.065624 147.60625 27.05 148.8875Q27.425 148.30937 27.971874 148.02812Q28.534374 147.74687 29.14375 147.74687Q30.190624 147.74687 30.925 148.52812Q31.675 149.30937 31.675 150.52812Q31.675 151.34062 31.315624 152.04375Q30.971874 152.73125 30.3625 153.10625Q29.753124 153.46562 28.9875 153.46562Q27.659374 153.46562 26.83125 152.49687Q26.003124 151.52812 26.003124 149.30937Q26.003124 146.80937 26.925 145.68437Q27.721874 144.7 29.08125 144.7Q30.096874 144.7 30.7375 145.27812Q31.39375 145.84062 31.51875 146.84062ZM27.221874 150.54375Q27.221874 151.09062 27.440624 151.59062Q27.675 152.075 28.08125 152.34062Q28.503124 152.60625 28.971874 152.60625Q29.628124 152.60625 30.1125 152.075Q30.596874 151.52812 30.596874 150.60625Q30.596874 149.71562 30.1125 149.2Q29.64375 148.68437 28.925 148.68437Q28.20625 148.68437 27.70625 149.2Q27.221874 149.71562 27.221874 150.54375ZM33.05 149.09062Q33.05 147.55937 33.3625 146.6375Q33.675 145.7 34.284374 145.2Q34.909374 144.7 35.846874 144.7Q36.534374 144.7 37.05 144.98125Q37.58125 145.2625 37.925 145.79375Q38.26875 146.30937 38.45625 147.05937Q38.64375 147.80937 38.64375 149.09062Q38.64375 150.60625 38.33125 151.52812Q38.034374 152.45 37.409374 152.96562Q36.8 153.46562 35.846874 153.46562Q34.6125 153.46562 33.89375 152.575Q33.05 151.5125 33.05 149.09062ZM34.128124 149.09062Q34.128124 151.2 34.628124 151.90312Q35.128124 152.60625 35.846874 152.60625Q36.58125 152.60625 37.065624 151.90312Q37.565624 151.2 37.565624 149.09062Q37.565624 146.96562 37.065624 146.27812Q36.58125 145.575 35.83125 145.575Q35.1125 145.575 34.675 146.18437Q34.128124 146.96562 34.128124 149.09062Z" fill-rule="nonzero"/><path fill="#000000" d="M27.675 87.62708Q27.01875 87.37708 26.690624 86.93958Q26.378124 86.48646 26.378124 85.87708Q26.378124 84.93958 27.05 84.29896Q27.7375 83.65833 28.846874 83.65833Q29.971874 83.65833 30.659374 84.31458Q31.346874 84.97083 31.346874 85.90833Q31.346874 86.50208 31.034374 86.93958Q30.721874 87.37708 30.08125 87.62708Q30.878124 87.87708 31.284374 88.45521Q31.690624 89.03333 31.690624 89.83021Q31.690624 90.92396 30.909374 91.67396Q30.14375 92.42396 28.8625 92.42396Q27.596874 92.42396 26.815624 91.67396Q26.034374 90.92396 26.034374 89.79896Q26.034374 88.95521 26.45625 88.39271Q26.89375 87.83021 27.675 87.62708ZM27.45625 85.83021Q27.45625 86.43958 27.846874 86.83021Q28.253124 87.22083 28.878124 87.22083Q29.4875 87.22083 29.878124 86.84583Q30.26875 86.45521 30.26875 85.89271Q30.26875 85.31458 29.8625 84.92396Q29.45625 84.51771 28.8625 84.51771Q28.253124 84.51771 27.846874 84.90833Q27.45625 85.29896 27.45625 85.83021ZM27.128124 89.79896Q27.128124 90.25208 27.33125 90.67396Q27.55 91.09583 27.971874 91.33021Q28.39375 91.56458 28.878124 91.56458Q29.628124 91.56458 30.1125 91.08021Q30.6125 90.59583 30.6125 89.84583Q30.6125 89.08021 30.1125 88.58021Q29.6125 88.08021 28.846874 88.08021Q28.096874 88.08021 27.6125 88.58021Q27.128124 89.06458 27.128124 89.79896ZM33.05 88.04896Q33.05 86.51771 33.3625 85.59583Q33.675 84.65833 34.284374 84.15833Q34.909374 83.65833 35.846874 83.65833Q36.534374 83.65833 37.05 83.93958Q37.58125 84.22083 37.925 84.75208Q38.26875 85.26771 38.45625 86.01771Q38.64375 86.76771 38.64375 88.04896Q38.64375 89.56458 38.33125 90.48646Q38.034374 91.40833 37.409374 91.92396Q36.8 92.42396 35.846874 92.42396Q34.6125 92.42396 33.89375 91.53333Q33.05 90.47083 33.05 88.04896ZM34.128124 88.04896Q34.128124 90.15833 34.628124 90.86146Q35.128124 91.56458 35.846874 91.56458Q36.58125 91.56458 37.065624 90.86146Q37.565624 90.15833 37.565624 88.04896Q37.565624 85.92396 37.065624 85.23646Q36.58125 84.53333 35.83125 84.53333Q35.1125 84.53333 34.675 85.14271Q34.128124 85.92396 34.128124 88.04896Z" fill-rule="nonzero"/><path fill="#000000" d="M170.99374 349.45L169.94687 349.45L169.94687 342.73126Q169.55624 343.09064 168.93124 343.46564Q168.32187 343.825 167.8375 343.9969L167.8375 342.98126Q168.7125 342.5594 169.36874 341.98126Q170.04062 341.3875 170.32187 340.825L170.99374 340.825L170.99374 349.45ZM177.57187 349.45L177.57187 344.04376L176.63437 344.04376L176.63437 343.23126L177.57187 343.23126L177.57187 342.5594Q177.57187 341.9344 177.68124 341.6375Q177.8375 341.21564 178.2125 340.96564Q178.60312 340.71564 179.29062 340.71564Q179.74374 340.71564 180.275 340.825L180.11874 341.73126Q179.79062 341.6844 179.49374 341.6844Q179.00937 341.6844 178.80624 341.8875Q178.61874 342.09064 178.61874 342.65314L178.61874 343.23126L179.8375 343.23126L179.8375 344.04376L178.61874 344.04376L178.61874 349.45L177.57187 349.45ZM180.32187 342.075L180.32187 340.85626L181.38437 340.85626L181.38437 342.075L180.32187 342.075ZM180.32187 349.45L180.32187 343.23126L181.38437 343.23126L181.38437 349.45L180.32187 349.45ZM183.29062 349.45L183.29062 340.85626L184.35312 340.85626L184.35312 349.45L183.29062 349.45ZM190.57187 347.45L191.66562 347.575Q191.41562 348.52814 190.7125 349.0594Q190.00937 349.59064 188.93124 349.59064Q187.57187 349.59064 186.75937 348.7469Q185.9625 347.90314 185.9625 346.3875Q185.9625 344.825 186.775 343.96564Q187.5875 343.09064 188.86874 343.09064Q190.11874 343.09064 190.9 343.9344Q191.69687 344.77814 191.69687 346.325Q191.69687 346.41876 191.69687 346.60626L187.05624 346.60626Q187.11874 347.6375 187.63437 348.1844Q188.15 348.71564 188.93124 348.71564Q189.50937 348.71564 189.91562 348.41876Q190.3375 348.10626 190.57187 347.45ZM187.11874 345.7469L190.5875 345.7469Q190.525 344.95 190.19687 344.5594Q189.68124 343.95 188.88437 343.95Q188.15 343.95 187.65 344.4344Q187.16562 344.91876 187.11874 345.7469Z" fill-rule="nonzero"/><path fill="#000000" d="M435.0375 341.98126L435.0375 340.96564L440.6 340.96564L440.6 341.79376Q439.7875 342.66876 438.975 344.1219Q438.17813 345.5594 437.74063 347.09064Q437.4125 348.16876 437.33438 349.45L436.24063 349.45Q436.25626 348.4344 436.63126 346.9969Q437.02188 345.5594 437.725 344.23126Q438.44376 342.90314 439.25626 341.98126L435.0375 341.98126ZM445.52188 349.45L445.52188 344.04376L444.58438 344.04376L444.58438 343.23126L445.52188 343.23126L445.52188 342.5594Q445.52188 341.9344 445.63126 341.6375Q445.7875 341.21564 446.1625 340.96564Q446.55313 340.71564 447.24063 340.71564Q447.69376 340.71564 448.225 340.825L448.06876 341.73126Q447.74063 341.6844 447.44376 341.6844Q446.95938 341.6844 446.75626 341.8875Q446.56876 342.09064 446.56876 342.65314L446.56876 343.23126L447.7875 343.23126L447.7875 344.04376L446.56876 344.04376L446.56876 349.45L445.52188 349.45ZM448.27188 342.075L448.27188 340.85626L449.33438 340.85626L449.33438 342.075L448.27188 342.075ZM448.27188 349.45L448.27188 343.23126L449.33438 343.23126L449.33438 349.45L448.27188 349.45ZM451.24063 349.45L451.24063 340.85626L452.30313 340.85626L452.30313 349.45L451.24063 349.45ZM458.52188 347.45L459.61563 347.575Q459.36563 348.52814 458.6625 349.0594Q457.95938 349.59064 456.88126 349.59064Q455.52188 349.59064 454.70938 348.7469Q453.9125 347.90314 453.9125 346.3875Q453.9125 344.825 454.725 343.96564Q455.5375 343.09064 456.81876 343.09064Q458.06876 343.09064 458.85 343.9344Q459.64688 344.77814 459.64688 346.325Q459.64688 346.41876 459.64688 346.60626L455.00626 346.60626Q455.06876 347.6375 455.58438 348.1844Q456.1 348.71564 456.88126 348.71564Q457.45938 348.71564 457.86563 348.41876Q458.2875 348.10626 458.52188 347.45ZM455.06876 345.7469L458.5375 345.7469Q458.475 344.95 458.14688 344.5594Q457.63126 343.95 456.83438 343.95Q456.1 343.95 455.6 344.4344Q455.11563 344.91876 455.06876 345.7469Z" fill-rule="nonzero"/><path fill="#4285f4" d="M259.0 61.916668C259.0 65.23038 256.31372 67.916664 253.0 67.916664C249.6863 67.916664 247.0 65.23038 247.0 61.916668C247.0 58.60296 249.6863 55.916668 253.0 55.916668C256.31372 55.916668 259.0 58.60296 259.0 61.916668Z" fill-rule="nonzero"/><path fill="#1a1a1a" d="M274.0625 62.90104L275.1875 63.197914Q274.82812 64.58854 273.90625 65.322914Q272.98438 66.05729 271.64062 66.05729Q270.25 66.05729 269.375 65.49479Q268.5 64.93229 268.04688 63.86979Q267.59375 62.791664 267.59375 61.55729Q267.59375 60.21354 268.10938 59.21354Q268.625 58.21354 269.5625 57.697914Q270.51562 57.18229 271.65625 57.18229Q272.9375 57.18229 273.8125 57.83854Q274.70312 58.49479 275.04688 59.68229L273.92188 59.947914Q273.625 59.010414 273.04688 58.58854Q272.48438 58.15104 271.625 58.15104Q270.64062 58.15104 269.96875 58.635414Q269.3125 59.104164 269.03125 59.90104Q268.76562 60.697914 268.76562 61.55729Q268.76562 62.65104 269.07812 63.46354Q269.40625 64.27604 270.07812 64.68229Q270.75 65.08854 271.54688 65.08854Q272.5 65.08854 273.15625 64.541664Q273.82812 63.99479 274.0625 62.90104ZM276.76562 65.916664L276.76562 57.322914L277.82812 57.322914L277.82812 65.916664L276.76562 65.916664ZM279.40625 62.80729Q279.40625 61.072914 280.35938 60.24479Q281.15625 59.55729 282.3125 59.55729Q283.59375 59.55729 284.40625 60.40104Q285.23438 61.229164 285.23438 62.71354Q285.23438 63.916664 284.875 64.604164Q284.51562 65.291664 283.8125 65.68229Q283.125 66.05729 282.3125 66.05729Q281.01562 66.05729 280.20312 65.229164Q279.40625 64.385414 279.40625 62.80729ZM280.48438 62.80729Q280.48438 63.99479 281.0 64.58854Q281.53125 65.18229 282.3125 65.18229Q283.10938 65.18229 283.625 64.58854Q284.14062 63.99479 284.14062 62.77604Q284.14062 61.61979 283.60938 61.02604Q283.09375 60.43229 282.3125 60.43229Q281.53125 60.43229 281.0 61.02604Q280.48438 61.604164 280.48438 62.80729ZM290.875 65.916664L290.875 64.99479Q290.14062 66.05729 288.89062 66.05729Q288.34375 66.05729 287.85938 65.854164Q287.39062 65.635414 287.15625 65.322914Q286.92188 64.99479 286.82812 64.52604Q286.76562 64.229164 286.76562 63.541664L286.76562 59.697914L287.82812 59.697914L287.82812 63.15104Q287.82812 63.96354 287.89062 64.260414Q287.98438 64.666664 288.29688 64.916664Q288.625 65.15104 289.10938 65.15104Q289.57812 65.15104 289.98438 64.916664Q290.40625 64.666664 290.57812 64.24479Q290.76562 63.822914 290.76562 63.02604L290.76562 59.697914L291.8125 59.697914L291.8125 65.916664L290.875 65.916664ZM297.82812 65.916664L297.82812 65.135414Q297.23438 66.05729 296.09375 66.05729Q295.34375 66.05729 294.71875 65.65104Q294.09375 65.229164 293.75 64.49479Q293.40625 63.760414 293.40625 62.80729Q293.40625 61.885414 293.71875 61.11979Q294.03125 60.354164 294.65625 59.96354Q295.28125 59.55729 296.04688 59.55729Q296.60938 59.55729 297.04688 59.791664Q297.48438 60.02604 297.76562 60.40104L297.76562 57.322914L298.8125 57.322914L298.8125 65.916664L297.82812 65.916664ZM294.5 62.80729Q294.5 64.010414 295.0 64.604164Q295.5 65.18229 296.1875 65.18229Q296.875 65.18229 297.35938 64.61979Q297.84375 64.05729 297.84375 62.90104Q297.84375 61.61979 297.34375 61.02604Q296.85938 60.43229 296.14062 60.43229Q295.4375 60.43229 294.96875 61.010414Q294.5 61.572914 294.5 62.80729Z" fill-rule="nonzero"/><path fill="#ea4335" d="M328.0 61.916668C328.0 65.23038 325.31372 67.916664 322.0 67.916664C318.68628 67.916664 316.0 65.23038 316.0 61.916668C316.0 58.60296 318.68628 55.916668 322.0 55.916668C325.31372 55.916668 328.0 58.60296 328.0 61.916668Z" fill-rule="nonzero"/><path fill="#1a1a1a" d="M336.92188 65.916664L336.92188 57.322914L340.17188 57.322914Q341.01562 57.322914 341.46875 57.40104Q342.10938 57.510414 342.53125 57.80729Q342.96875 58.104164 343.21875 58.635414Q343.48438 59.166664 343.48438 59.80729Q343.48438 60.90104 342.78125 61.666664Q342.09375 62.416664 340.26562 62.416664L338.0625 62.416664L338.0625 65.916664L336.92188 65.916664ZM338.0625 61.416664L340.28125 61.416664Q341.39062 61.416664 341.84375 61.010414Q342.3125 60.58854 342.3125 59.83854Q342.3125 59.30729 342.03125 58.93229Q341.76562 58.541664 341.32812 58.416664Q341.03125 58.33854 340.26562 58.33854L338.0625 58.33854L338.0625 61.416664ZM351.0625 62.90104L352.1875 63.197914Q351.82812 64.58854 350.90625 65.322914Q349.98438 66.05729 348.64062 66.05729Q347.25 66.05729 346.375 65.49479Q345.5 64.93229 345.04688 63.86979Q344.59375 62.791664 344.59375 61.55729Q344.59375 60.21354 345.10938 59.21354Q345.625 58.21354 346.5625 57.697914Q347.51562 57.18229 348.65625 57.18229Q349.9375 57.18229 350.8125 57.83854Q351.70312 58.49479 352.04688 59.68229L350.92188 59.947914Q350.625 59.010414 350.04688 58.58854Q349.48438 58.15104 348.625 58.15104Q347.64062 58.15104 346.96875 58.635414Q346.3125 59.104164 346.03125 59.90104Q345.76562 60.697914 345.76562 61.55729Q345.76562 62.65104 346.07812 63.46354Q346.40625 64.27604 347.07812 64.68229Q347.75 65.08854 348.54688 65.08854Q349.5 65.08854 350.15625 64.541664Q350.82812 63.99479 351.0625 62.90104Z" fill-rule="nonzero"/><path fill="#000000" d="M19.26875 32.89375L22.08125 32.6125Q22.346874 34.034374 23.1125 34.70625Q23.89375 35.3625 25.20625 35.3625Q26.6125 35.3625 27.315624 34.76875Q28.01875 34.175 28.01875 33.39375Q28.01875 32.878124 27.721874 32.534374Q27.425 32.175 26.690624 31.909374Q26.175 31.721874 24.378124 31.284374Q22.05 30.70625 21.1125 29.8625Q19.784374 28.675 19.784374 26.9875Q19.784374 25.89375 20.409374 24.940624Q21.034374 23.9875 22.190624 23.4875Q23.3625 22.9875 25.01875 22.9875Q27.70625 22.9875 29.065624 24.175Q30.440624 25.346874 30.503124 27.33125L27.6125 27.45625Q27.425 26.346874 26.815624 25.8625Q26.20625 25.378124 24.9875 25.378124Q23.721874 25.378124 23.01875 25.89375Q22.55 26.2375 22.55 26.784374Q22.55 27.3 22.9875 27.659374Q23.534374 28.1125 25.64375 28.6125Q27.753124 29.1125 28.753124 29.64375Q29.76875 30.175 30.33125 31.096874Q30.909374 32.01875 30.909374 33.378124Q30.909374 34.6125 30.221874 35.690624Q29.55 36.753124 28.3 37.284374Q27.05 37.8 25.175 37.8Q22.471874 37.8 21.003124 36.55Q19.55 35.3 19.26875 32.89375ZM37.7375 27.175L37.7375 29.3625L35.8625 29.3625L35.8625 33.55Q35.8625 34.815624 35.909374 35.034374Q35.971874 35.2375 36.159374 35.378124Q36.3625 35.503124 36.628124 35.503124Q37.003124 35.503124 37.7375 35.2375L37.971874 37.378124Q37.003124 37.784374 35.8 37.784374Q35.05 37.784374 34.45625 37.534374Q33.8625 37.284374 33.58125 36.89375Q33.315624 36.4875 33.20625 35.815624Q33.1125 35.346874 33.1125 33.89375L33.1125 29.3625L31.846874 29.3625L31.846874 27.175L33.1125 27.175L33.1125 25.1125L35.8625 23.51875L35.8625 27.175L37.7375 27.175ZM42.034374 30.346874L39.55 29.89375Q39.971874 28.39375 40.9875 27.675Q42.01875 26.940624 44.034374 26.940624Q45.878124 26.940624 46.76875 27.378124Q47.675 27.815624 48.034374 28.4875Q48.409374 29.14375 48.409374 30.940624L48.378124 34.14375Q48.378124 35.503124 48.503124 36.159374Q48.64375 36.8 49.003124 37.55L46.284374 37.55Q46.175 37.26875 46.01875 36.7375Q45.95625 36.4875 45.925 36.409374Q45.221874 37.096874 44.409374 37.440624Q43.6125 37.784374 42.70625 37.784374Q41.1125 37.784374 40.190624 36.925Q39.26875 36.05 39.26875 34.721874Q39.26875 33.83125 39.675 33.14375Q40.096874 32.45625 40.846874 32.096874Q41.6125 31.721874 43.05 31.45625Q44.971874 31.096874 45.70625 30.784374L45.70625 30.503124Q45.70625 29.721874 45.315624 29.39375Q44.925 29.05 43.846874 29.05Q43.1125 29.05 42.690624 29.33125Q42.284374 29.6125 42.034374 30.346874ZM45.70625 32.565624Q45.175 32.7375 44.034374 32.9875Q42.89375 33.2375 42.55 33.471874Q42.003124 33.846874 42.003124 34.440624Q42.003124 35.003124 42.425 35.425Q42.8625 35.846874 43.534374 35.846874Q44.26875 35.846874 44.940624 35.3625Q45.440624 34.9875 45.596874 34.45625Q45.70625 34.096874 45.70625 33.1125L45.70625 32.565624ZM55.7375 27.175L55.7375 29.3625L53.8625 29.3625L53.8625 33.55Q53.8625 34.815624 53.909374 35.034374Q53.971874 35.2375 54.159374 35.378124Q54.3625 35.503124 54.628124 35.503124Q55.003124 35.503124 55.7375 35.2375L55.971874 37.378124Q55.003124 37.784374 53.8 37.784374Q53.05 37.784374 52.45625 37.534374Q51.8625 37.284374 51.58125 36.89375Q51.315624 36.4875 51.20625 35.815624Q51.1125 35.346874 51.1125 33.89375L51.1125 29.3625L49.846874 29.3625L49.846874 27.175L51.1125 27.175L51.1125 25.1125L53.8625 23.51875L53.8625 27.175L55.7375 27.175ZM57.9875 25.76875L57.9875 23.2375L60.7375 23.2375L60.7375 25.76875L57.9875 25.76875ZM57.9875 37.55L57.9875 27.175L60.7375 27.175L60.7375 37.55L57.9875 37.55ZM72.03438 30.2375L69.33125 30.7375Q69.19063 29.925 68.70625 29.51875Q68.22188 29.096874 67.45625 29.096874Q66.425 29.096874 65.81563 29.815624Q65.20625 30.51875 65.20625 32.175Q65.20625 34.01875 65.81563 34.784374Q66.44063 35.55 67.4875 35.55Q68.26875 35.55 68.76875 35.1125Q69.26875 34.659374 69.47188 33.58125L72.15938 34.034374Q71.75313 35.89375 70.55 36.846874Q69.3625 37.784374 67.3625 37.784374Q65.08125 37.784374 63.721874 36.346874Q62.378124 34.909374 62.378124 32.378124Q62.378124 29.8 63.7375 28.378124Q65.09688 26.940624 67.40938 26.940624Q69.3 26.940624 70.40938 27.76875Q71.53438 28.58125 72.03438 30.2375ZM78.78438 27.175L80.31563 27.175L80.31563 26.39375Q80.31563 25.08125 80.58125 24.440624Q80.8625 23.8 81.6125 23.39375Q82.3625 22.9875 83.50313 22.9875Q84.675 22.9875 85.8 23.346874L85.425 25.253124Q84.76875 25.096874 84.15938 25.096874Q83.56563 25.096874 83.3 25.378124Q83.05 25.659374 83.05 26.440624L83.05 27.175L85.09688 27.175L85.09688 29.33125L83.05 29.33125L83.05 37.55L80.31563 37.55L80.31563 29.33125L78.78438 29.33125L78.78438 27.175ZM86.9875 25.76875L86.9875 23.2375L89.7375 23.2375L89.7375 25.76875L86.9875 25.76875ZM86.9875 37.55L86.9875 27.175L89.7375 27.175L89.7375 37.55L86.9875 37.55ZM91.9875 37.55L91.9875 23.2375L94.7375 23.2375L94.7375 37.55L91.9875 37.55ZM102.9875 34.253124L105.72188 34.70625Q105.20625 36.20625 104.06563 37.003124Q102.925 37.784374 101.22188 37.784374Q98.50313 37.784374 97.20625 36.01875Q96.19063 34.596874 96.19063 32.440624Q96.19063 29.8625 97.53438 28.409374Q98.87813 26.940624 100.94063 26.940624Q103.25313 26.940624 104.58125 28.471874Q105.925 30.003124 105.87813 33.159374L99.00313 33.159374Q99.03438 34.378124 99.65938 35.065624Q100.3 35.7375 101.2375 35.7375Q101.89375 35.7375 102.33125 35.39375Q102.76875 35.034374 102.9875 34.253124ZM103.14375 31.471874Q103.1125 30.284374 102.51875 29.675Q101.94063 29.05 101.1125 29.05Q100.20625 29.05 99.62813 29.690624Q99.03438 30.346874 99.05 31.471874L103.14375 31.471874ZM107.01875 34.596874L109.76875 34.175Q109.95625 34.971874 110.4875 35.39375Q111.01875 35.8 111.9875 35.8Q113.05 35.8 113.59688 35.409374Q113.95625 35.14375 113.95625 34.675Q113.95625 34.3625 113.75313 34.159374Q113.55 33.971874 112.84688 33.8Q109.51875 33.065624 108.62813 32.45625Q107.39375 31.628124 107.39375 30.128124Q107.39375 28.784374 108.45625 27.8625Q109.53438 26.940624 111.76875 26.940624Q113.89375 26.940624 114.925 27.64375Q115.97188 28.33125 116.3625 29.690624L113.76875 30.159374Q113.59688 29.565624 113.12813 29.2375Q112.675 28.909374 111.81563 28.909374Q110.7375 28.909374 110.26875 29.221874Q109.95625 29.440624 109.95625 29.76875Q109.95625 30.065624 110.22188 30.26875Q110.59688 30.55 112.78438 31.05Q114.97188 31.55 115.84688 32.26875Q116.70625 33.003124 116.70625 34.3Q116.70625 35.7375 115.51875 36.76875Q114.33125 37.784374 111.9875 37.784374Q109.87813 37.784374 108.62813 36.925Q107.39375 36.065624 107.01875 34.596874Z" fill-rule="nonzero"/></svg>